<?xml version="1.0" encoding="UTF-8" standalone="no"?>
<!-- Created with Inkscape (http://www.inkscape.org/) -->

<svg
   xmlns:svg="http://www.w3.org/2000/svg"
   xmlns="http://www.w3.org/2000/svg"
   version="1.1"
   width="292.40509"
   height="432.0665"
   id="svg2">
  <defs
     id="defs4" />
  <g
     transform="translate(-196.01924,-170.15224)"
     id="layer2"
     style="display:inline">
    <path
       d="m 343.125,170.1875 c -20.76804,1.04535 -32.73,3.3435 -39.84375,5.53125 -2.80649,0.86311 -4.70854,1.68217 -6.21875,2.4375 -0.8286,-0.56084 -1.67169,-1.08473 -2.5625,-1.5625 -2.21427,-1.18758 -4.62566,-2.16469 -6.90625,-3 -4.56119,-1.67062 -8.65625,-2.75 -8.65625,-2.75 a 4.8563835,4.8563835 0 0 0 -4.3125,8.46875 c -19.29921,1.90709 -33.07625,13.56422 -42.0625,27.4375 -11.38334,17.574 -16.58552,38.67575 -20.28125,48.96875 a 4.8563835,4.8563835 0 0 0 7.28125,5.6875 c 5.41911,-3.65965 10.34388,-8.53019 13.625,-11.0625 -0.0727,1.1889 -1.8571,5.59609 -5.25,10.5625 -3.44666,5.0451 -8.19581,10.91805 -12.9375,16.875 -4.74169,5.95695 -9.47067,11.99265 -13.0625,17.625 -3.59183,5.63235 -6.51832,10.71011 -5.8125,16.59375 0.41536,3.4624 0.76126,6.02287 1.125,7.96875 0.36374,1.94588 0.44714,3.01 1.5,4.8125 0.26321,0.45062 0.60284,1.0122 1.375,1.625 0.77216,0.6128 2.21527,1.2234 3.65625,1.09375 0.45884,-0.0413 0.79583,-0.14529 1.15625,-0.25 1.48247,9.15717 5.09685,16.40074 9.5,22.34375 6.88138,9.28792 15.09291,15.82522 20.28125,24 5.40927,8.52289 9.875,13.375 9.875,13.375 a 4.8563835,4.8563835 0 0 0 8.25,-4.5625 c 0,0 -1.19015,-4.90679 -2.15625,-8.90625 2.3836,2.70707 4.8165,5.48463 7.28125,8.25 -0.15921,2.30937 -0.33766,4.62035 -0.1875,6.34375 0.45589,5.23214 1.2493,9.81225 2.125,14.09375 l -1.875,0.5 a 4.8563835,4.8563835 0 0 0 -3.59375,4.6875 c 0,0 0.0534,1.96335 0.0625,2.75 -0.21281,0.0287 -0.45461,0.0683 -0.65625,0.0937 -0.33215,0.0419 -0.52697,0.0636 -0.8125,0.0937 -0.666,-1.03321 -1.49259,-2.63156 -3.4375,-4.1875 a 4.8563835,4.8563835 0 0 0 -0.71875,-0.46875 c -1.31612,-0.71788 -2.30764,-1.26491 -4,-1.4375 -0.42309,-0.0432 -0.91216,-0.049 -1.46875,0.0312 -1.29254,-0.92086 -2.11533,-1.5248 -2.96875,-2.09375 A 4.8563835,4.8563835 0 0 0 239.71875,401.75 c -2.67926,-1.19078 -5.65538,-1.01189 -8.03125,0.9375 -0.50813,0.41692 -0.95047,0.99498 -1.34375,1.625 l -1.75,-0.53125 c -2.39759,-1.07471 -5.09661,-0.81986 -7.0625,0.5 -1.20555,0.80938 -2.33015,2.05594 -2.8125,3.8125 -0.48235,1.75656 -0.0555,3.92531 0.96875,5.40625 1.43944,2.0813 2.99972,2.74605 4.40625,3.46875 1.40653,0.7227 2.79458,1.33968 4.03125,1.96875 1.26529,0.64363 2.18812,1.24542 2.84375,1.8125 -0.96022,-0.15776 -1.79062,-0.40509 -2.84375,-0.4375 -1.09357,-0.0337 -2.21289,-0.0312 -3.65625,0.4375 -1.44336,0.46868 -3.72137,2.10685 -4.21875,4.59375 -0.43171,2.15859 0.3976,3.59112 0.96875,4.4375 0.57115,0.84638 1.12047,1.3466 1.6875,1.84375 1.13406,0.99431 2.37653,1.81939 3.65625,2.59375 2.55944,1.54871 4.89188,2.75964 6.8125,3.4375 a 4.8563835,4.8563835 0 0 0 0.59375,0.15625 c 1.06744,0.22874 1.9895,0.2927 3.4375,0.4375 1.448,0.1448 3.19458,0.29522 5,0.40625 1.80542,0.11103 3.6443,0.18599 5.3125,0.1875 1.6682,0.002 2.95899,0.0571 4.6875,-0.375 1.87569,-0.46892 3.29491,-1.217 4.6875,-1.9375 1.14129,4.38978 4.18881,7.44023 7.75,10.5 3.59589,3.08958 7.96666,5.95878 12.34375,8.40625 4.37709,2.44747 8.72313,4.44976 12.5,5.6875 1.88843,0.61887 3.61248,1.06826 5.375,1.21875 1.76252,0.15049 4.12371,0.40769 6.375,-2.09375 1.98927,-2.2103 5.76939,-7.05179 9.3125,-11.625 1.03017,-1.32968 1.04321,-1.36827 1.9375,-2.53125 3.26416,6.78532 7.85043,17.58661 8.75,27.5625 1.72249,19.10166 -6.84289,45.43058 -16.15625,66.5625 -9.31336,21.13192 -19.09375,37.125 -19.09375,37.125 a 4.8563835,4.8563835 0 0 0 2.5,7.09375 c 0,0 11.98421,4.38991 24.625,8.78125 6.3204,2.19567 12.79101,4.39657 18.0625,6.0625 2.63575,0.83297 4.96792,1.52075 6.875,2.03125 1.90708,0.5105 2.92745,0.90625 4.96875,0.90625 2.52467,0 4.95981,-1.19999 6.40625,-2.71875 1.21392,-1.27462 1.82403,-2.62613 2.28125,-3.875 4.73608,1.36671 11.77969,3.44082 17.4375,5.5625 4.18079,1.56779 8.07182,0.68733 12.3125,-0.4375 4.24068,-1.12483 8.74224,-2.86623 12.9375,-4.6875 6.67698,-2.89865 11.57405,-5.49429 13.71875,-6.65625 1.1554,0.36365 2.5262,0.78329 4.375,1.125 4.27453,0.79006 10.52441,1.34721 18.8125,0.59375 3.44712,-0.31337 5.94482,-2.14642 8.375,-4.34375 2.43018,-2.19733 4.79732,-5.0069 7.21875,-8.3125 4.84286,-6.6112 9.90706,-15.20625 14.8125,-24.375 9.81088,-18.3375 18.96241,-38.86688 23.3125,-48.90625 0.14002,-0.32316 0.28198,-0.66955 0.34375,-0.8125 a 4.8563835,4.8563835 0 0 0 0,-0.0312 c 0.44381,-1.03073 0.51122,-1.14396 0.875,-2 1.04962,-2.44536 1.625,-3.84375 1.625,-3.84375 a 4.8563835,4.8563835 0 0 0 -2.53125,-6.28125 c 0,0 -4.33874,-1.94525 -9.75,-4.34375 -0.0106,-0.005 -0.0206,0.005 -0.0312,0 -0.45559,-0.20322 -0.91208,-0.40454 -1.125,-0.5 -8.30084,-3.72166 -20.11237,-9.07827 -30.75,-14.125 -8.9312,-4.23716 -16.36608,-8.06043 -20.59375,-10.5 0.36158,-0.81048 0.7289,-1.54151 1.09375,-2.5 1.23115,-3.23434 2.52672,-7.35539 3.84375,-11.875 1.51924,-5.21354 2.99254,-10.79042 4.3125,-16.15625 a 4.8563835,4.8563835 0 0 0 3.84375,0.5 c 0,0 1.81927,-0.53463 3.8125,-1.53125 0.99662,-0.49831 2.08096,-1.08417 3.1875,-2.09375 1.10654,-1.00958 2.53125,-2.72491 2.53125,-5.3125 0,-0.71226 -0.10193,-1.3099 -0.1875,-1.9375 1.04812,0.17179 2.04097,0.41209 3.125,0.5 4.18146,0.33909 9.00888,0.24117 12.6875,-3.4375 2.00554,-2.00554 2.82355,-4.56453 3.03125,-7.1875 2.73893,-1.23505 5.12686,-2.5727 5.90625,-6.1875 0.26466,-1.22748 -0.1534,-2.67215 -0.8125,-3.96875 0.56303,-0.92744 0.86668,-1.61462 1.125,-2.53125 0.30538,-1.08361 0.58226,-2.31537 0.40625,-4 -0.17601,-1.68463 -1.45019,-4.51512 -4.0625,-5.5 -2.49604,-0.94105 -4.54597,-0.29295 -6.46875,0.5625 l 0,-0.0312 c 0.2375,-0.0924 -0.99685,0.3196 -2.25,0.65625 -0.17293,0.0465 -0.4102,0.10762 -0.59375,0.15625 -0.20499,-0.38587 -0.38492,-0.76747 -0.59375,-1.15625 -0.0112,-0.0209 -0.02,-0.0416 -0.0312,-0.0625 -0.3819,-1.15225 -0.98153,-2.19415 -1.75,-3.15625 -0.004,-0.008 0.004,-0.0235 0,-0.0312 -1.67214,-3.01612 -3.46404,-6.09201 -5.25,-9.25 -2.02722,-3.58459 -5.29905,-7.6982 -9.21875,-12.03125 l 3.15625,-8.375 a 4.8563835,4.8563835 0 0 0 6.90625,-1.4375 c 1.06729,-1.73701 2.46081,-3.11128 4.1875,-5.375 1.72669,-2.26372 3.53027,-5.36678 4.71875,-9.75 1.99008,-7.33958 2.52206,-18.83099 0.9375,-38.875 0.88219,2.09471 1.78901,4.40227 2.75,6.8125 A 4.8563835,4.8563835 0 0 0 472.9375,307 c 2.28542,-17.27694 -9.36733,-35.53833 -23.53125,-51.3125 -8.54625,-9.51784 -18.05139,-17.81647 -27,-24.34375 a 4.8563835,4.8563835 0 0 0 -1.25,-6.03125 c 0,0 -5.7382,-4.64445 -11.65625,-9.75 -2.95902,-2.55278 -5.97936,-5.20402 -8.25,-7.40625 -1.13532,-1.10111 -2.0857,-2.11571 -2.71875,-2.84375 -0.63305,-0.72804 -0.93596,-1.48549 -0.625,-0.65625 -0.74973,-1.99928 -1.49114,-2.6215 -2.59375,-3.9375 -1.10261,-1.316 -2.49685,-2.84806 -4.1875,-4.53125 -3.3813,-3.36638 -7.88014,-7.37443 -13,-11.25 -10.23972,-7.75115 -22.71581,-15.36832 -35,-14.75 z m -48.5625,9.375 c -0.22884,0.14632 -0.89876,0.61063 -0.6875,0.4375 0.18922,-0.19929 0.94072,-0.53801 0.6875,-0.4375 z"
       id="path2913"
       style="fill:#000000;fill-opacity:1;stroke:none" />
    <path
       d="m 262.5,413.79075 c 0,0 -10,1.78572 -11.42857,1.42857 -1.42857,-0.35714 -2.60089,-3.79858 -4.49492,-5.31381 -4.16688,-2.27284 -2.64794,0.67096 -2.64794,0.67096 0,0 -4.66452,-3.38017 -6.17975,-4.39032 -2.27284,-1.01015 -4.67257,0.75463 -3.00136,2.64793 1.87237,2.1212 1.68111,2.45667 1.68111,2.45667 l -9.28571,-2.85714 c -1.89404,-1.51523 -4.74595,0.43163 -3.44516,2.31245 1.93365,2.79588 11.4069,4.09074 13.08801,10.18755 1.02247,3.70817 -1.07142,5.71429 -3.92857,5 -2.85714,-0.71429 -7.5,-1.42857 -7.85714,0.35714 -0.35714,1.78572 7.85343,6.02811 10,6.78572 1.76777,0.37881 13.35479,1.38524 16.21193,0.67096 2.85714,-0.71429 7.86829,-4.24239 10.72543,-4.24239 2.85715,0 0.91978,-15.35714 0.56264,-15.71429 z"
       id="path3721"
       style="fill:#ffccaa;fill-opacity:1;stroke:none" />
    <path
       d="m 296.39855,184.13607 c -3.03046,-4.54569 -18.68782,-8.5863 -18.68782,-8.5863 l 12.62691,9.09138 c -53.00983,-9.33995 -65.69646,51.02905 -73.4886,72.73098 10.42015,-7.03696 21.4609,-22.34201 21.21321,-7.07107 -0.2191,13.50788 -38.75726,47.4922 -37.12311,61.11423 3.26736,27.23618 3.51477,-3.82306 8.58629,-1.01015 -4.04061,34.09265 17.79178,42.48549 29.29443,60.60915 5.21183,8.2118 9.34391,12.6269 9.34391,12.6269 0,0 -7.32361,-27.27411 -3.78807,-24.24365 3.53553,3.03045 25.00127,28.78934 28.5368,30.80965 3.53553,2.0203 53.28555,5.55584 53.28555,5.55584 l 107.58125,-25.25382 14.14213,-37.37564 -1.01015,19.69797 c 5.59703,-9.1091 13.98256,-6.75437 8.08122,-63.13453 7.14311,-0.89766 9.87475,8.49812 13.13198,16.66752 3.83178,-28.96679 -41.9583,-70.61266 -64.14468,-80.81221 -1.95809,-6.56615 14.14213,3.53554 14.14213,3.53554 0,0 -23.2335,-18.68782 -24.74873,-22.72843 -1.51523,-4.04061 -30.30363,-32.30627 -50.00255,-31.31473 -41.00481,2.06396 -46.46702,9.09137 -46.9721,9.09137 z"
       id="path3668"
       style="fill:#ffeeaa;fill-opacity:1;stroke:none" />
    <path
       d="m 260.11428,267.97874 c 0,0 -20.02345,12.26441 -27.27412,21.2132 -4.12399,5.08984 -8.5863,17.67767 -8.5863,17.67767 l 10.60661,-4.04061 c 0,0 -2.23249,-2.98355 0.50507,11.61675 3.03046,16.16245 11.61676,29.79951 12.62691,30.30458 1.01015,0.50508 7.07107,-9.59645 7.07107,-9.59645 0,0 -1.02905,14.08907 7.07106,23.73859 8.10011,9.64952 45.45687,22.72843 45.45687,22.72843 l 74.24621,-5.05077 c 10.70129,-16.07242 29.84556,-27.4543 29.7995,-49.49747 5.94278,5.34376 5.1589,12.03286 4.54569,18.68782 0,0 7.93118,-22.80485 5.05076,-33.84011 -3.33399,-12.77292 -24.24366,-31.31473 -24.24366,-31.31473 l -14.14214,6.06092 -122.73353,-18.68782 z"
       id="path2850"
       style="fill:#a05a2c;fill-opacity:1;stroke:none" />
    <path
       d="m 296.47977,346.26555 c -24.63481,-30.22674 -34.90602,29.18287 -33.84011,41.41626 3.20564,36.79067 18.68782,47.47717 18.68782,47.47717 l 36.3655,-66.67007 c -8.27668,-6.22176 -11.97418,-10.88713 -21.21321,-22.22336 z"
       id="path3727"
       style="fill:#ececec;fill-opacity:1;stroke:none" />
    <path
       d="m 343.95694,369.49906 c 3.53554,-15.15229 7.39751,-26.74677 14.64721,-32.32488 26.60754,-20.47255 77.18421,24.40107 87.3782,42.42641 9.09011,16.07341 17.67767,30.30457 12.12183,35.86041 -5.55584,5.55584 -23.23351,-1.51523 -23.23351,-1.51523 l -49.49747,-7.07106 -41.41626,-37.37565 z"
       id="path3725"
       style="fill:#ececec;fill-opacity:1;stroke:none" />
    <path
       d="m 399.05086,352.77063 c 11.11168,4.54569 34.34519,32.82996 34.34519,32.82996 0,0 -32.67944,-25.09063 -35.86042,-27.77919 -9.78828,-8.27305 -28.57065,-11.39806 -16.16244,3.03045 4.68059,5.44268 21.21321,19.69798 21.21321,19.69798 0,0 -20.37909,-14.00211 -25.25382,-16.66752 -28.55054,-12.872 -20.54795,15.81762 -13.63706,28.78935 l -18.18274,-11.61675 c 7.21861,-29.48548 22.44878,-45.21686 53.53808,-28.28428 z"
       id="path2920"
       style="fill:#939dac;fill-opacity:1;stroke:none" />
    <path
       d="m 261.78125,418.4375 c 0,0 -3.88264,2.82591 -6.07143,6.42411 -4.12912,6.78792 -15.44791,8.07861 -23.20982,7.10714 1.04852,0.52217 1.97023,0.90677 2.5,1.09375 1.76777,0.37881 13.36161,1.40178 16.21875,0.6875 2.85714,-0.71429 7.86161,-4.25 10.71875,-4.25 1.33047,0 1.60515,-3.34267 1.5,-6.9375 l -1.65625,-4.125 z"
       id="path2927"
       style="fill:#d38d5f;fill-opacity:1;stroke:none" />
    <path
       d="m 283.21875,337.78125 c -5.498,0.1578 -9.8112,5.56939 -13.0625,12.8125 5.5326,-9.633 13.53477,-13.56795 24.3125,-0.34375 9.1902,11.27632 12.90868,15.98351 21.09375,22.15625 l 2.125,-3.90625 c -8.27668,-6.22176 -11.97972,-10.91377 -21.21875,-22.25 -5.00395,-6.13981 -9.40597,-8.57908 -13.25,-8.46875 z"
       id="path2942"
       style="fill:#939dac;fill-opacity:1;stroke:none" />
    <path
       d="m 302.54069,372.02445 c -5.05077,-10.6066 -9.59645,-22.22336 -22.22336,-20.70813 -5.51627,0.66195 -11.11168,14.64721 -12.12183,23.23351 -0.82829,7.04053 1.01015,25.75889 1.01015,25.75889 3.03046,-9.09137 0.50129,-34.01267 8.08122,-33.84011 2.46288,0.0561 6.06091,16.66751 6.06091,16.66751 0,0 -5.02841,-20.37886 2.02031,-22.72843 7.04873,-2.34957 19.1929,22.22336 19.1929,22.22336 l -2.0203,-10.6066 z"
       id="path2947"
       style="fill:#939dac;fill-opacity:1;stroke:none" />
    <path
       d="m 374.125,331.9375 c -5.66258,0.12604 -10.95808,1.73128 -15.53125,5.25 -1.38651,1.06681 -2.62115,2.35402 -3.78125,3.84375 26.66319,-20.0742 76.98923,24.58485 87.15625,42.5625 3.32224,5.87449 4.42379,10.76997 6.95089,15.81696 -24.14464,-5.97809 -60.6033,-14.85943 -63.83928,-15.18303 -5.05077,-0.50508 -17.90301,-12.21324 -22.4487,-16.75893 -3.69202,-3.69201 -12.36037,-4.94682 -16.99572,-7.07931 -1.33665,4.11518 -0.50844,4.1445 -1.66719,9.11056 l 41.40625,37.375 49.5,7.0625 c 0,0 13.60282,5.45261 20.6875,3.03125 6.6187,-2.55254 3.96462,-10.29602 2.0623,-15.2184 -2.57198,-6.31938 -7.04233,-13.99777 -11.65625,-22.15625 -8.4419,-14.92723 -44.56042,-48.26353 -71.84375,-47.65625 l 2e-4,-3.5e-4 z"
       id="path2937"
       style="fill:#939dac;fill-opacity:1;stroke:none" />
    <path
       d="m 322.875,346.625 c -0.70412,0.008 -1.40623,0.046 -2.09375,0.0937 -8.64029,0.6004 -16.11155,4.43299 -19.90625,12.78125 a 2.5831436,2.5831436 0 0 0 -0.15625,1.6875 l 0.625,2.53125 -1.71875,1.125 a 2.5831436,2.5831436 0 0 0 -1,1.25 c 0,0 -3.4522,9.44052 -7.4375,18.78125 -1.99265,4.67037 -4.13615,9.32846 -5.96875,12.6875 -0.9163,1.67952 -1.74788,3.01904 -2.375,3.8125 -0.24923,0.31534 -0.41944,0.4598 -0.53125,0.5625 -5.06551,-0.30221 -13.9375,0.375 -13.9375,0.375 a 2.5831436,2.5831436 0 0 0 -0.46875,0.0625 l -9.28125,2.5 a 2.5831436,2.5831436 0 0 0 -1.875,1.875 l 175.3125,-5 c -1.45936,-2.83962 -3.57583,-5.39313 -6.8125,-6 -1.79913,-0.33734 -12.90966,-2.70699 -24.09375,-5.46875 -5.59204,-1.38088 -11.23237,-2.85371 -15.8125,-4.25 -4.58013,-1.39629 -8.30709,-2.93367 -9.0625,-3.46875 -2.74974,-1.94773 -8.3352,-6.80743 -13.21875,-11.15625 -2.44178,-2.17441 -4.72533,-4.23204 -6.5,-5.8125 -0.88733,-0.79023 -1.62821,-1.4607 -2.21875,-1.96875 -0.59054,-0.50805 -0.73459,-0.71576 -1.46875,-1.15625 -0.86247,-0.51749 -1.56207,-0.73855 -2.71875,-1.1875 -1.15668,-0.44895 -2.55335,-0.94608 -3.90625,-1.4375 -1.91406,-0.69525 -2.81101,-0.99379 -3.71875,-1.3125 -0.06,-0.85831 -0.035,-1.31928 -0.3125,-2.8125 -0.22677,-1.22009 -0.53037,-2.53509 -1.0625,-3.78125 -0.53213,-1.24616 -1.25424,-2.57333 -2.78125,-3.40625 -1.99184,-1.08646 -4.15291,-1.36265 -5.875,-1.5 -1.72209,-0.13735 -3.09375,-0.0625 -3.09375,-0.0625 l 0,0.0312 c -2.24045,-0.23969 -4.41888,-0.39768 -6.53125,-0.375 z"
       id="path3737"
       style="fill:#000000;fill-opacity:1;stroke:none" />
    <path
       d="m 329.56227,349.54855 c 0,0 4.79822,-0.25254 7.57614,1.26269 2.77792,1.51523 3.03046,9.59645 3.03046,9.59645 0,0 10.10153,3.53553 11.36422,4.29315 1.26269,0.75761 17.17259,15.65736 23.2335,19.95051 6.06092,4.29315 45.96195,12.87944 50.00256,13.63706 4.04061,0.75761 7.07106,7.57614 7.07106,13.13198 0,5.55584 -11.11167,50.50763 -14.89975,52.52793 -3.78807,2.02031 66.63097,32.69958 66.63097,32.69958 0,0 -36.78572,88.21428 -52.5,89.64285 -15.71429,1.42857 -23.21429,-2.14285 -23.21429,-2.14285 0,0 -28.21428,15.71428 -36.78571,12.5 -8.57143,-3.21429 -22.85714,-7.14286 -22.85714,-7.14286 0,0 0,7.85714 -5,7.85714 -5,0 -52.85715,-17.5 -52.85715,-17.5 0,0 39.68354,-64.94475 35.92349,-106.64214 -1.55632,-17.25899 -12.7092,-36.215 -12.7092,-36.215 0,0 -12.5,16.42857 -15.71429,20 -3.21428,3.57143 -33.57143,-11.78572 -36.07143,-21.78572 -2.5,-10 -2.5,-27.85714 -2.5,-27.85714 l 9.28572,-2.5 c 0,0 10,-0.71428 14.28571,-0.35714 4.28572,0.35714 18.21429,-37.5 18.21429,-37.5 l 3.21428,-2.14286 -1.07142,-4.28571 c 4.55407,-10.01886 14.19536,-12.40688 26.34798,-11.02792 z"
       id="path3717"
       style="fill:#ffffff;fill-opacity:1;stroke:none" />
    <path
       d="m 417.78318,407.12759 c -6.02964,7.23974 -11.28517,30.51512 -11.71175,35.7703 -0.45113,5.55768 -1.25,22.50001 1.60714,23.39286 2.85715,0.89286 5.53572,-1.25 5.53572,-1.25 -1.78571,-7.85714 -0.53572,-36.78571 1.60714,-39.64285 4.4832,-2.67022 10.05115,-0.9961 13.92857,-0.89286 0,0 3.57143,-9.46429 1.60714,-11.96429 -1.96429,-2.5 -12.21682,-5.23459 -12.57396,-5.41316 z"
       id="path3734"
       style="fill:#b7c4c8;fill-opacity:1;stroke:none" />
    <path
       d="m 311.8846,340.45718 c 0,0 4.04061,14.89975 2.0203,17.17259 -2.0203,2.27284 -3.94343,3.36965 -3.94343,3.36965 -0.86287,11.24016 3.7328,17.14965 8.56091,19.85334 4.51858,-5.64266 8.43652,-10.985 14.73823,-17.51922 0,0 1.35242,-1.9157 -1.67804,-4.44108 -3.03045,-2.52538 -2.27284,-23.23351 -2.27284,-23.23351 l -17.42513,4.79823 z"
       id="path3719"
       style="fill:#ffccaa;fill-opacity:1;stroke:none" />
    <path
       d="m 329.3125,335.65625 -17.4375,4.8125 c 0,0 1.38261,5.08782 2.125,9.78125 1.30812,-0.3204 3.09265,-0.38243 5.21875,0.5625 4.54569,2.02031 11.60391,10.09962 10.59375,12.625 -0.29633,0.74082 -0.66882,2.631 -1.0625,4.84375 1.38331,-1.58258 2.8406,-3.21688 4.5,-4.9375 0,0 1.37421,-1.91212 -1.65625,-4.4375 -3.03045,-2.52538 -2.28125,-23.25 -2.28125,-23.25 z"
       id="path2859"
       style="fill:#d38d5f;fill-opacity:1;stroke:none" />
    <path
       d="m 323.96875,217.34375 c -0.10077,-0.002 -0.17187,0.009 -0.25,0.0312 -5,1.42857 -57.00447,32.16964 -57.71875,34.3125 -13.57143,17.85714 -16.41071,51.86161 -12.125,59.71875 4.28572,7.85714 38.46519,31.79543 48.40625,33.09375 17.07107,2.22951 54.24827,-11.38308 62.0625,-14.96875 4.90748,-2.25187 8.72578,-7.19461 11.59375,-13.3125 1.52776,1.10104 3.34858,1.80572 5.4375,1.625 4.29931,-0.37193 8.34997,-8.24501 10.65625,-19.4375 2.27989,-11.06446 -3.67821,-18.81822 -8.65625,-14.59375 0.33723,-5.35756 0.18168,-9.58191 -0.375,-11.4375 -2.10938,-7.03125 -52.68253,-54.89976 -59.03125,-55.03125 z"
       id="path2891"
       style="fill:#ffccaa;fill-opacity:1;stroke:none" />
    <path
       d="m 304.4375,227.71875 c -16.68948,9.61166 -37.98144,22.60057 -38.4375,23.96875 -5.53747,7.28615 -9.29095,17.27287 -11.5,27.0625 6.99759,-4.35906 30.99931,-19.33626 34.90625,-22.375 4.54569,-3.53553 16.15625,-15.65625 16.15625,-15.65625 0,0 5.55821,21.21446 9.09375,24.75 3.53553,3.53553 41.4375,21.6875 41.4375,21.6875 0,0 -7.08281,-17.15625 -5.0625,-17.15625 2.0203,0 18.1875,11.625 18.1875,11.625 0,0 -1.00587,27.75587 -3.53125,30.28125 -2.52538,2.52538 6.54061,-2.00349 2.5,4.5625 -2.21557,3.6003 -7.33197,10.51454 -11.625,16.1875 3.48608,-1.30226 6.22767,-2.41212 7.78125,-3.125 4.90748,-2.25187 8.72578,-7.19461 11.59375,-13.3125 1.52776,1.10104 3.34858,1.80572 5.4375,1.625 4.29931,-0.37193 8.34997,-8.24501 10.65625,-19.4375 2.27989,-11.06446 -3.67821,-18.81822 -8.65625,-14.59375 0.33723,-5.35756 0.18168,-9.58191 -0.375,-11.4375 -1.11084,-3.70279 -15.67022,-18.70753 -30.125,-32.125 l -48.4375,-12.53125 z"
       id="path2854"
       style="fill:#d38d5f;fill-opacity:1;stroke:none" />
    <path
       d="m 245.38585,277.0701 c 6.31345,-4.04061 46.71955,-28.78934 50.25509,-33.08249 3.53553,-4.29315 4.29315,-7.82868 4.29315,-7.82868 0,0 1.93579,14.66171 10.6066,20.96066 8.45927,6.14527 30.44606,20.53845 39.90102,21.21321 -2.52537,-8.33377 -7.3236,-14.39468 -2.77792,-13.8896 4.54569,0.50507 15.81376,7.9973 22.22336,13.88959 5.30427,4.87617 -5.54484,29.12302 -11.61675,30.80966 13.5491,1.81343 16.31891,-3.21845 18.43528,-9.09138 l 10.10152,-28.03173 8.08123,4.79823 -21.46575,-54.54824 -62.12438,-15.90991 -56.316,44.44672 -9.59645,26.26396 z"
       id="path3672"
       style="fill:#ffeeaa;fill-opacity:1;stroke:none" />
    <path
       d="m 292.77232,272.08482 c -11.09602,0.74194 -11.87877,14.60907 -13.30357,16.22768 -2.24202,2.547 -5.40625,1.38839 -5.40625,1.38839 0,0 2.14753,3.60111 7.651,5.6384 L 302.09375,295.5 c 0,0 2.60517,-9.56709 0.875,-14 -1.73017,-4.43291 -5.42845,-9.84455 -10.19643,-9.41518 z m 21.69643,8.50893 c -2.49501,3.5615 -2.65625,16.4375 -2.65625,16.4375 l 1,2.65625 -0.24572,-0.64705 c 0,0 0.007,2.39911 2.27951,2.27284 2.27284,-0.12627 12.09835,2.15245 14.75,2.53125 5.72384,0.35552 11.97481,1.86891 13.15371,-4.56329 0,0 -0.50587,-0.12246 -3.03125,-0.375 C 337.19337,298.65371 333.90196,287.29668 331,283.75 c -3.7912,-6.40181 -10.8686,-8.84665 -16.53125,-3.15625 z"
       id="path3699"
       style="fill:#d38d5f;fill-opacity:1;stroke:none" />
    <path
       d="m 299.17647,299.16719 c 6.5543,2.96371 3.48793,-2.52368 3.82018,-5.42589 0.37575,-3.28229 0.61203,-11.33656 -1.86486,-13.93288 -3.75723,-3.9384 -11.76725,-2.90412 -14.07715,-0.21294 -3.77156,4.3941 -4.8769,9.87633 -4.54569,11.8693 1.26878,7.63448 12.59105,5.85912 16.66752,7.70241 z"
       id="path3695"
       style="fill:#ffffff;fill-opacity:1;stroke:none" />
    <path
       d="m 315.46518,284.77252 c -1.40095,1.91331 -2.98346,6.87127 -4.54568,11.99556 -1.15412,3.78564 0.41869,4.74229 4.92449,5.55583 3.05717,0.55199 4.89844,1.626 14.39467,1.51523 6.57646,-0.0767 3.05497,-10.45134 1.51523,-14.77348 -1.70849,-4.79582 -12.0456,-10.08808 -16.28871,-4.29314 z"
       id="path3697"
       style="fill:#ffffff;fill-opacity:1;stroke:none" />
    <path
       d="m 295.46963,291.02283 a 6.4397225,7.7655478 0 1 1 -12.87945,0 6.4397225,7.7655478 0 1 1 12.87945,0 z"
       transform="translate(7.6211928,-0.82396668)"
       id="path3703"
       style="fill:#000000;fill-opacity:1;stroke:none" />
    <path
       d="m 295.46963,291.02283 a 6.4397225,7.7655478 0 1 1 -12.87945,0 6.4397225,7.7655478 0 1 1 12.87945,0 z"
       transform="matrix(0.25490197,0,0,0.38498327,220.95651,176.66699)"
       id="path3705"
       style="fill:#ffffff;fill-opacity:1;stroke:none" />
    <path
       d="m 295.46963,291.02283 a 6.4397225,7.7655478 0 1 1 -12.87945,0 6.4397225,7.7655478 0 1 1 12.87945,0 z"
       transform="translate(37.420693,4.0406102)"
       id="path3707"
       style="fill:#000000;fill-opacity:1;stroke:none" />
    <path
       d="m 295.46963,291.02283 a 6.4397225,7.7655478 0 1 1 -12.87945,0 6.4397225,7.7655478 0 1 1 12.87945,0 z"
       transform="matrix(0.25490197,0,0,0.38498327,250.75601,181.53157)"
       id="path3709"
       style="fill:#ffffff;fill-opacity:1;stroke:none" />
    <path
       d="m 301.07051,308.88991 c 2.52538,2.27284 5.68211,2.65165 6.43972,2.52538 0.75761,-0.12627 2.02031,1.13642 1.01015,1.76777 -1.01015,0.63134 -2.93792,1.65808 -5.42957,1.01015 -3.68461,-0.95814 -2.99725,-5.65311 -2.0203,-5.3033 z"
       id="path3711"
       style="fill:#aa4400;fill-opacity:1;stroke:none" />
    <path
       d="m 302.3332,321.13801 c 1.05533,0.14979 2.5015,-1.08746 3.97747,-0.88388 1.47597,0.20358 1.78987,2.11681 2.80318,3.26597 0.24192,0.27435 0.50347,0.50236 0.79549,0.64837 1.51523,0.75761 5.43813,1.07184 6.56599,0.88388 0.37882,-0.0631 0.75762,-3.03046 0.75762,-3.03046 0.13205,0.17606 1.00722,3.47966 2.14657,4.29314 1.7291,1.23455 -2.27589,0.34013 -3.6618,-0.0631 -2.75107,-0.80042 -4.80474,-1.50787 -9.26794,-0.83052 -3.83064,0.58135 -4.57759,-0.12453 -7.4627,-1.44232 -1.64404,-0.75092 -7.01559,-1.47862 -7.19735,-2.02031 -0.29856,-0.88982 -3.35497,2.45725 -2.71479,1.51524 1.39363,-2.0507 2.03293,-3.19525 2.08344,-5.24017 l 1.38896,2.14658 c 0.98362,0.83788 2.0531,1.83079 3.65413,1.46108 1.17358,-0.27101 0.90177,-2.24983 3.03813,-2.34497 2.13637,-0.0951 2.03827,1.49167 3.0936,1.64147 z"
       id="path3713"
       style="fill:#aa4400;fill-opacity:1;stroke:none" />
    <path
       d="m 297.2193,330.16624 c -0.43365,-0.81418 -1.09523,-1.64059 -1.13642,-0.69447 -0.20404,4.68688 8.09885,6.24675 9.78585,5.61897 2.11472,-0.78696 4.76876,-3.53211 2.84106,-3.09359 -1.28669,0.29269 -4.55734,0.81949 -6.51536,0.44401 -2.49171,-0.47782 -4.54148,-1.46074 -4.97513,-2.27492 z"
       id="path3715"
       style="fill:#aa4400;fill-opacity:1;stroke:none" />
    <path
       d="m 425,400.21932 c -1.96429,-1.25 -6.61983,5.31382 -7.69126,7.81382 -1.07143,2.5 9.83412,9.32904 11.26269,10.04333 1.42857,0.71428 6.42857,10 6.42857,10 0,0 6.07143,-1.78572 6.07143,-4.28572 0,-2.5 -2.14286,-8.92857 -2.14286,-8.92857 0,0 10.53571,-6.07143 12.23214,-6.42857 1.33929,-0.26786 7.50001,-0.26786 11.25001,-1.07143 4.19642,-1.875 4.10714,-4.28571 1.51785,-4.28571 l -3.54713,-0.92087 c 0,0 3.76164,-0.95196 5.09489,-2.88597 0.74884,-1.08627 2.66817,-7.29835 -3.06561,-4.6753 -1.60715,0.625 -12.67857,3.30357 -12.67857,3.30357 0,0 3.62656,-4.0661 3.21428,-5.80358 -1.25,-5.26786 -5,-4.28571 -6.78572,-1.42856 -1.33928,1.78571 -7.67857,8.39285 -9.82142,9.46428 -2.14286,1.07143 -7.41071,0.80357 -11.33929,0.0893 l 0,-2e-5 z"
       id="path3723"
       style="fill:#ffccaa;fill-opacity:1;stroke:none" />
    <path
       d="m 351.53125,402.84375 c -4.04061,0 -12.61326,2.01602 -7.5625,3.53125 5.05076,1.51523 10.34454,0.24571 13.375,3.78125 1.0781,1.25778 15.63436,13.69692 17.30368,23.84281 0.9794,5.95269 29.50143,37.38788 33.40614,39.34023 27.06034,13.50438 44.38597,41.53595 54.51368,69.30666 1.64665,-3.80023 20.99525,-45.9897 20.99525,-45.9897 0,0 -61.99105,-27.27229 -67.25888,-32.5376 -0.6015,0.94576 -1.93995,1.90202 -3.41006,2.71875 -4.54568,2.52538 -7.83106,-1.36865 -7.83106,-1.36865 0,0 -29.03205,-44.19844 -32.0625,-46.21875 -3.03046,-2.0203 -20.96368,-16.40625 -21.46875,-16.40625 z"
       id="path3729"
       style="fill:#b7c4c8;fill-opacity:1;stroke:none" />
    <path
       d="m 303.29299,408.90006 c 0,0 0.005,20.70622 -4.79299,26.76713 -3.43631,4.34062 -20.87422,10.65975 -24.90625,11.86406 9.76512,6.57822 22.25125,11.68959 24.25,9.46875 3.19129,-3.54588 15.44853,-19.64311 15.625,-19.875 l -10.17576,-28.22494 z"
       id="path2915"
       style="fill:#b7c4c8;fill-opacity:1;stroke:none" />
    <path
       d="m 452.4375,390.53125 c -1.9262,2.44918 -9.13769,11.48531 -11,12.1875 -5.37552,2.02687 -7.81105,11.03416 -6.78125,12.5 2.01672,2.87066 3.22242,7.73859 3.90625,11.375 1.32238,-0.73316 2.5,-1.70843 2.5,-2.8125 0,-2.5 -2.125,-8.90625 -2.125,-8.90625 0,0 10.52232,-6.08036 12.21875,-6.4375 1.33929,-0.26786 7.5,-0.25893 11.25,-1.0625 1.54672,-0.69109 2.49706,-1.46714 2.96875,-2.15625 -0.008,-5.4e-4 -0.0231,0 -0.0312,0 -1.42857,0 -10.34375,-1.0625 -10.34375,-1.0625 l 8.5,-3.25 c 0.77865,-0.43344 1.51159,-0.96184 1.96875,-1.625 0.30935,-0.44875 0.81946,-1.78598 0.90625,-3 -3.48733,1.6706 -15.41693,7.25456 -16.03125,5.71875 -0.32571,-0.81426 1.0872,-2.88778 2.6875,-4.90625 -1.34395,0.33077 -3.3125,0.8125 -3.3125,0.8125 0,0 3.63103,-4.07502 3.21875,-5.8125 -0.14332,-0.60399 -0.29768,-1.11624 -0.5,-1.5625 z"
       id="path2922"
       style="fill:#d38d5f;fill-opacity:1;stroke:none" />
    <path
       d="m 370.5,524.59375 c -1.90553,0.13765 -1.84437,4.88482 -1.9375,7.0625 -0.44661,10.44303 4.35513,45.53094 7.21875,65.3125 11.22796,-1.24178 31.69843,-12.61356 32,-12.78125 l -29.9375,-51.125 c -3.81759,-6.52171 -6.03996,-8.56293 -7.34375,-8.46875 z m -23.34375,12.0625 -4.53125,60.65625 c 0.23719,0.0331 0.4375,0.0625 0.59375,0.0625 5,0 5,-7.875 5,-7.875 0,0 0.89753,0.2467 1.6875,0.46875 l -0.25,-35.46875 -2.5,-17.84375 z"
       id="path2955"
       style="fill:#b7c4c8;fill-opacity:1;stroke:none" />
  </g>
</svg>
