<?xml version="1.0" encoding="UTF-8" standalone="no"?>
<!-- Created with Inkscape (http://www.inkscape.org/) -->

<svg
   xmlns:dc="http://purl.org/dc/elements/1.1/"
   xmlns:cc="http://creativecommons.org/ns#"
   xmlns:rdf="http://www.w3.org/1999/02/22-rdf-syntax-ns#"
   xmlns:svg="http://www.w3.org/2000/svg"
   xmlns="http://www.w3.org/2000/svg"
   xmlns:sodipodi="http://sodipodi.sourceforge.net/DTD/sodipodi-0.dtd"
   xmlns:inkscape="http://www.inkscape.org/namespaces/inkscape"
   width="447.58627"
   height="413.67468"
   id="svg4587"
   version="1.1"
   inkscape:version="0.48.1 r9760"
   sodipodi:docname="centaur2.svg"
   style="display:inline">
  <title
     id="title5819">centaur</title>
  <defs
     id="defs4589" />
  <sodipodi:namedview
     id="base"
     pagecolor="#ffffff"
     bordercolor="#666666"
     borderopacity="1.0"
     inkscape:pageopacity="0.0"
     inkscape:pageshadow="2"
     inkscape:zoom="1.1276977"
     inkscape:cx="236.55244"
     inkscape:cy="209.1903"
     inkscape:document-units="px"
     inkscape:current-layer="layer2"
     showgrid="false"
     inkscape:window-width="1920"
     inkscape:window-height="1152"
     inkscape:window-x="0"
     inkscape:window-y="0"
     inkscape:window-maximized="1"
     fit-margin-top="0"
     fit-margin-left="0"
     fit-margin-right="0"
     fit-margin-bottom="0" />
  <metadata
     id="metadata4592">
    <rdf:RDF>
      <cc:Work
         rdf:about="">
        <dc:format>image/svg+xml</dc:format>
        <dc:type
           rdf:resource="http://purl.org/dc/dcmitype/StillImage" />
        <dc:title>centaur</dc:title>
        <cc:license
           rdf:resource="http://creativecommons.org/licenses/publicdomain/" />
        <dc:date>2012-06-24</dc:date>
        <dc:creator>
          <cc:Agent>
            <dc:title>tzunghaor (Prim András)</dc:title>
          </cc:Agent>
        </dc:creator>
        <dc:publisher>
          <cc:Agent>
            <dc:title>openclipart.org</dc:title>
          </cc:Agent>
        </dc:publisher>
        <dc:subject>
          <rdf:Bag>
            <rdf:li>centaur</rdf:li>
            <rdf:li>mythology</rdf:li>
            <rdf:li>run</rdf:li>
            <rdf:li></rdf:li>
          </rdf:Bag>
        </dc:subject>
      </cc:Work>
      <cc:License
         rdf:about="http://creativecommons.org/licenses/publicdomain/">
        <cc:permits
           rdf:resource="http://creativecommons.org/ns#Reproduction" />
        <cc:permits
           rdf:resource="http://creativecommons.org/ns#Distribution" />
        <cc:permits
           rdf:resource="http://creativecommons.org/ns#DerivativeWorks" />
      </cc:License>
    </rdf:RDF>
  </metadata>
  <g
     inkscape:groupmode="layer"
     id="layer2"
     inkscape:label="Réteg"
     transform="translate(-127.23657,-325.15625)">
    <path
       sodipodi:type="inkscape:offset"
       inkscape:radius="3.0700045"
       inkscape:original="M 183.8125 328.21875 C 181.89375 328.21875 176.53125 330.53125 176.53125 330.53125 C 176.53125 330.53125 169.24876 330.54025 166.5625 330.15625 C 164.46825 329.85707 161.27289 333.88277 159.9375 335.71875 C 158.79635 336.54771 157.72031 337.45651 156.90625 338.40625 C 153.65002 342.20518 140.88875 346.87625 141.65625 349.5625 C 141.65625 349.5625 146.52291 354.45418 145.4375 356.625 C 144.35209 358.79582 137.3125 373.4375 137.3125 373.4375 L 142.71875 372.90625 L 141.65625 379.9375 L 142.1875 385.90625 L 140.71875 388.8125 C 140.61253 388.6103 140.65255 388.45999 140.84375 388.375 C 140.84375 388.375 135.35289 391.78503 133.78125 394.46875 C 130.93508 399.32884 130.10365 408.31772 130.375 411.03125 C 130.64636 413.74477 135.125 412.375 135.125 412.375 C 135.125 412.375 136.27374 408.70628 137.03125 406.8125 C 137.84531 404.77736 140.45313 400.29465 143.28125 398.125 C 145.00734 396.80079 149.375 395.8125 149.375 395.8125 C 150.6353 395.55175 151.13154 395.15311 151.1875 394.71875 L 173.125 389.71875 L 178 388.625 C 178 388.625 178.415 389.17077 179.0625 390.09375 C 179.30918 390.44134 179.28396 390.41562 179.625 390.90625 C 180.2023 391.73733 180.81209 392.62055 181.5625 393.75 C 181.5615 393.758 181.5635 393.77345 181.5625 393.78125 C 184.54473 398.27167 188.3125 404.46596 188.3125 407.09375 C 188.3125 411.43539 186.6875 419.03125 186.6875 419.03125 C 186.6875 419.03125 180.19373 416.8542 176.9375 422.28125 C 173.68127 427.7083 174.76668 440.18961 176.9375 444.53125 C 179.10832 448.87289 182.34375 454.84375 182.34375 454.84375 L 181.25 486.875 L 169.875 489.5625 C 169.875 489.5625 171.48332 481.44896 169.3125 480.90625 C 167.14168 480.36355 163.34375 479.8125 163.34375 479.8125 C 163.34375 479.8125 153.05728 473.28125 150.34375 473.28125 C 147.63023 473.28125 140.54582 472.20729 138.375 472.75 C 136.20418 473.2927 135.6875 479.25 135.6875 479.25 C 135.6875 479.25 133.21953 483.62033 132.8125 486.0625 C 132.60642 487.29904 132.7881 489.73962 132.40625 492.1875 C 131.87098 495.6188 130.78125 499.17053 130.78125 500.4375 C 130.78125 502.60832 135.1714 505.03173 137.75 506.1875 C 138.09668 506.34289 138.4698 506.46847 138.84375 506.59375 C 139.06606 506.67065 139.29937 506.74318 139.53125 506.8125 C 139.60425 506.8329 139.67628 506.8556 139.75 506.875 C 144.82862 508.32473 151.87865 508.02503 153.5625 506.59375 L 155.53125 503.59375 L 162.28125 502.59375 C 162.28125 502.59375 163.20496 503.96029 164.96875 505.65625 C 164.97475 505.66225 164.9943 505.65025 165 505.65625 C 165.87908 506.50021 166.95429 507.42738 168.21875 508.3125 C 168.86532 508.76753 169.53992 509.20853 170.28125 509.625 C 171.00839 510.03309 171.77969 510.41081 172.59375 510.75 C 174.22187 511.42838 176.02641 512.13946 177.875 512.75 C 177.884 512.753 177.89695 512.747 177.90625 512.75 C 181.13201 513.81345 184.41783 514.56237 186.75 514.28125 C 187.08354 514.24035 187.39548 514.17908 187.6875 514.09375 C 188.85771 513.75456 189.66615 513.03359 189.9375 511.8125 C 190.48021 509.37033 191.51902 504.89347 192.46875 500.6875 C 193.42149 496.4888 194.29115 492.57551 194.5625 491.21875 C 194.83175 489.87249 195.83787 484.19767 196.78125 478.875 C 196.79025 478.8256 196.8038 478.83045 196.8125 478.78125 C 197.76223 473.42203 198.625 468.40625 198.625 468.40625 C 198.625 468.40625 212.19584 484.68127 213.28125 487.9375 C 213.82857 489.57947 216.84782 492.19279 219.71875 494.375 C 220.17951 494.72523 220.51997 494.94435 220.9375 495.25 C 221.34749 495.55053 221.71615 495.85649 222.09375 496.125 C 222.63664 496.50973 223.03634 496.78985 223.4375 497.0625 C 224.49987 497.79482 225.21875 498.25 225.21875 498.25 L 234.4375 511.8125 L 234.71875 516.625 L 227.9375 523.15625 L 232.15625 525.09375 L 227.9375 528.9375 L 231.03125 528.9375 C 231.03125 528.9375 227.19125 552.32874 225.65625 558.46875 C 224.78776 561.94271 227.00262 574.98666 229.84375 586.15625 C 220.85435 591.12086 207.11713 597.74086 204.03125 599.25 C 199.53648 601.44816 194.58116 604.3618 194.28125 607.03125 C 193.98133 609.70071 194.30775 617.08384 198.03125 621.75 C 199.50562 623.5976 202.36907 629.37335 205.3125 635.96875 C 203.26401 638.70965 201.64555 640.92353 201.15625 641.65625 C 198.0827 646.25889 197.28368 653.55669 199.96875 655.09375 C 201.88626 656.19143 211.77128 665.27306 219.25 672.5 C 220.62672 675.23402 221.96383 677.70733 222.5 678.9375 C 223.19031 680.52129 230.54439 687.35849 238.53125 693.96875 C 242.66799 699.14218 246.69425 704.44414 249.0625 708.09375 C 250.51969 710.33936 252.81941 713.06141 255.3125 715.8125 C 255.87659 716.4349 256.45214 717.03805 257.03125 717.65625 C 257.61368 718.27787 258.16652 718.894 258.75 719.5 C 258.91449 719.67096 259.08614 719.83084 259.25 720 C 259.92088 720.69207 260.57222 721.38046 261.21875 722.03125 C 262.08411 722.90314 262.91101 723.73792 263.6875 724.5 C 264.6463 725.44007 265.51676 726.2679 266.25 726.96875 C 267.60059 728.25894 268.625 729.21875 268.625 729.21875 C 269.37808 728.78814 270.10845 728.32677 270.8125 727.875 C 281.37501 721.10075 286.58782 712.04493 291.28125 702.75 L 291.25 702.71875 L 276.3125 695.0625 C 276.3125 695.0625 275.99641 695.29583 275.46875 695.65625 C 275.40465 695.70025 275.41475 695.67055 275.34375 695.71875 C 274.82299 696.07278 274.15785 696.53312 273.34375 697.03125 C 273.20252 697.11795 273.11606 697.16177 272.96875 697.25 C 272.64407 697.4447 272.31664 697.64798 271.96875 697.84375 C 271.79402 697.94215 271.6163 698.02811 271.4375 698.125 C 271.12532 698.29414 270.8197 698.46536 270.5 698.625 C 270.28173 698.73403 270.06301 698.83538 269.84375 698.9375 C 269.55855 699.07035 269.2518 699.1952 268.96875 699.3125 C 268.76668 699.3959 268.54269 699.45781 268.34375 699.53125 C 268.25815 699.56275 268.17851 699.5956 268.09375 699.625 C 267.61392 699.79225 267.15953 699.94345 266.71875 700.03125 C 265.89187 700.19596 264.99735 699.91565 264.09375 699.375 C 265.20489 697.3475 266.27165 695.32367 267.25 693.28125 C 267.254 693.27225 267.246 693.2585 267.25 693.25 C 268.87186 689.86179 270.28023 686.45094 271.34375 683 C 271.34675 682.99 271.34075 682.97825 271.34375 682.96875 C 271.55666 682.27666 271.75286 681.60152 271.9375 680.90625 C 272.30764 679.51571 272.6301 678.1233 272.875 676.71875 C 272.99728 676.01647 273.0993 675.29985 273.1875 674.59375 L 257.125 673.1875 C 257.125 673.1875 257.0397 673.3069 256.875 673.53125 C 256.7781 673.66604 256.77165 673.70067 256.5625 673.96875 C 256.43512 674.13454 256.32598 674.26086 256.15625 674.46875 C 256.05975 674.58634 255.9846 674.68385 255.875 674.8125 C 255.7806 674.92451 255.66658 675.03707 255.5625 675.15625 C 255.36794 675.37707 255.16341 675.57404 254.9375 675.8125 C 254.5974 676.17367 254.21737 676.56085 253.8125 676.9375 C 249.85158 676.70405 244.40851 677.50275 241.40625 677 C 240.54892 676.85643 239.24058 675.73914 237.65625 674.0625 C 237.85806 671.08568 239.45386 667.70477 237.96875 664.84375 C 230.467 650.66917 227.04657 656.24586 225.1875 647.96875 L 223.8125 641.78125 C 230.53999 633.2922 242.15763 619.04534 246.4375 616.375 C 248.6544 614.99181 252.19095 612.45236 255.78125 609.78125 C 256.49174 609.9507 257.16745 610.11598 257.90625 610.28125 C 259.45949 610.62918 261.05069 610.96116 262.71875 611.28125 C 262.81635 611.29995 262.90207 611.32515 263 611.34375 C 264.48942 611.62687 266.02513 611.87402 267.59375 612.125 C 268.99957 612.35003 270.4137 612.55756 271.875 612.75 C 272.15141 612.7864 272.40926 612.8399 272.6875 612.875 C 275.31032 613.20627 277.98833 613.46098 280.75 613.65625 C 282.5851 613.78584 284.46262 613.88149 286.34375 613.9375 C 286.40605 613.9395 286.46888 613.9355 286.53125 613.9375 C 287.41044 613.9624 288.30035 613.9929 289.1875 614 C 289.35552 614.001 289.51922 613.99932 289.6875 614 C 290.76097 614.004 291.82357 613.99295 292.90625 613.96875 C 293.16642 613.96275 293.42688 613.9448 293.6875 613.9375 C 294.0948 613.9259 294.49794 613.92205 294.90625 613.90625 C 296.8344 613.83225 298.7761 613.70583 300.71875 613.53125 C 302.43326 613.37669 304.15804 613.17831 305.875 612.9375 C 306.10401 612.9054 306.33354 612.87745 306.5625 612.84375 C 307.41919 612.71759 308.26958 612.58676 309.125 612.4375 C 309.23937 612.4175 309.35441 612.3954 309.46875 612.375 C 310.43905 612.20203 311.40799 612.01665 312.375 611.8125 C 328.47039 608.41458 344.42671 603.27908 356.9375 598.75 C 366.62158 609.99613 380.42226 621.23341 390.28125 622.1875 C 391.24247 622.2805 392.29109 622.33786 393.375 622.375 C 402.36996 627.27829 410.24621 630.47266 412.53125 630.625 C 413.15812 630.6668 413.72769 630.77769 414.28125 630.9375 C 407.55964 638.01889 400.38674 645.61651 399.09375 647.125 C 396.79125 649.81125 383.745 659.01624 382.59375 665.15625 C 381.4425 671.29625 388.72375 679.35 389.875 683.1875 C 390.18168 684.20976 391.3045 687.21159 392.875 691.125 C 392.6597 691.53286 392.39378 692.01148 392.1875 692.40625 C 388.297 699.85177 382.93159 707.82994 378.5625 715.53125 C 378.39066 715.83415 378.23106 716.13557 378.0625 716.4375 C 378.0101 716.5313 377.9583 716.62505 377.90625 716.71875 C 377.66854 717.14685 377.41769 717.57414 377.1875 718 C 376.96345 718.41441 376.74744 718.83792 376.53125 719.25 C 376.06839 720.13296 375.63954 721.00483 375.21875 721.875 C 374.96431 722.40116 374.70555 722.91675 374.46875 723.4375 C 374.24536 723.92788 374.01884 724.42112 373.8125 724.90625 C 373.7694 725.00782 373.7298 725.11743 373.6875 725.21875 C 373.43836 725.81427 373.22041 726.4134 373 727 C 372.83519 727.43966 372.67859 727.87828 372.53125 728.3125 C 372.35687 728.82569 372.1795 729.33875 372.03125 729.84375 C 371.82935 730.53147 371.64935 731.23508 371.5 731.90625 C 371.4887 731.95715 371.47965 732.01168 371.46875 732.0625 C 371.30901 732.80056 371.18323 733.50293 371.09375 734.21875 C 371.75493 734.35145 372.42373 734.47873 373.09375 734.59375 C 374.43379 734.82379 375.78153 735.02682 377.15625 735.1875 C 377.84361 735.2678 378.52289 735.34291 379.21875 735.40625 C 379.22905 735.40719 379.2398 735.40531 379.25 735.40625 C 379.9358 735.46845 380.6498 735.51662 381.34375 735.5625 C 384.86498 735.79531 388.46505 735.82593 392.1875 735.65625 C 395.16546 735.52054 398.21388 735.25201 401.3125 734.875 C 402.86181 734.68649 404.42188 734.46487 406 734.21875 L 407.5625 721.125 C 407.78491 721.46583 407.99753 721.80102 408.21875 722.125 C 408.55285 722.61139 408.88852 723.08649 409.21875 723.53125 C 409.30005 723.64139 409.38766 723.73634 409.46875 723.84375 C 409.76697 724.23678 410.04994 724.61425 410.34375 724.96875 C 410.40775 725.04625 410.46749 725.14319 410.53125 725.21875 C 410.94225 725.70363 411.3503 726.1628 411.75 726.5625 C 412.52551 726.32412 413.29944 726.04083 414.03125 725.75 C 415.51183 725.15998 416.92756 724.4677 418.25 723.6875 C 418.90334 723.30195 419.53659 722.89472 420.15625 722.46875 C 420.78307 722.03729 421.40417 721.56245 422 721.09375 C 424.97138 718.75539 427.60761 715.98939 430.0625 713.03125 C 430.0675 713.02525 430.0575 713.0062 430.0625 713 C 433.01368 709.44203 435.74026 705.6377 438.625 702 L 424.03125 692.78125 C 424.03125 692.78125 423.67343 693.04753 423.0625 693.4375 C 422.93524 693.5216 422.9651 693.4974 422.8125 693.59375 C 422.30786 693.90876 421.69017 694.28595 420.96875 694.65625 C 420.59448 694.85003 420.22542 695.03718 419.8125 695.21875 C 417.99184 696.01933 415.86698 696.61806 414.0625 696.25 C 413.62036 696.1598 413.10487 695.76144 412.53125 695.1875 C 413.84974 694.56911 414.93842 693.9077 415.59375 693.15625 C 418.91973 689.34239 416 679.34375 416 679.34375 C 416 679.34375 432.85918 648.54288 440.5625 634.78125 C 443.33309 632.3354 445.6387 630.22322 446.6875 629.09375 C 451.67626 623.72124 454.75126 613.735 447.84375 610.28125 C 440.93624 606.82749 435.35498 609.49502 429.03125 601.46875 C 426.96737 598.84921 425.04324 595.9138 423.25 592.9375 C 423.56233 592.47414 423.83869 591.98224 424.03125 591.46875 C 424.67883 589.74187 428.99502 586.32481 432.625 579.96875 C 433.63554 578.20443 434.59022 576.21169 435.40625 573.96875 C 435.56909 573.51996 435.72435 573.06295 435.875 572.59375 C 436.17698 571.65574 436.44327 570.67846 436.6875 569.65625 C 436.92895 568.6431 437.13915 567.56779 437.3125 566.46875 C 437.66181 564.24914 437.875 561.84032 437.875 559.25 C 437.875 557.94841 437.8175 556.63881 437.75 555.3125 C 437.7167 554.65269 437.6752 554.0076 437.625 553.34375 C 437.5745 552.67804 437.5364 552.01214 437.46875 551.34375 C 437.40145 550.67725 437.30325 550.01153 437.21875 549.34375 C 437.13405 548.6761 437.03957 548.0113 436.9375 547.34375 C 436.8866 547.00991 436.83657 546.6773 436.78125 546.34375 C 436.72565 546.00916 436.68505 545.67788 436.625 545.34375 C 436.5617 544.99054 436.5058 544.63374 436.4375 544.28125 C 436.4173 544.17743 436.3956 544.0725 436.375 543.96875 C 436.14797 542.82257 435.87403 541.66457 435.59375 540.53125 C 435.49785 540.14422 435.4147 539.75997 435.3125 539.375 C 435.2514 539.14423 435.18839 538.91745 435.125 538.6875 C 434.83004 537.61979 434.50039 536.5463 434.15625 535.5 C 434.10485 535.34364 434.0525 535.18706 434 535.03125 C 433.83721 534.54841 433.67347 534.07084 433.5 533.59375 C 433.4578 533.47766 433.4178 533.36573 433.375 533.25 C 433.18765 532.74384 432.98079 532.24878 432.78125 531.75 C 432.74815 531.6673 432.7209 531.58253 432.6875 531.5 C 432.47016 530.96359 432.26287 530.43306 432.03125 529.90625 C 430.78651 527.07503 429.32501 524.37625 427.65625 521.90625 C 432.77446 516.66289 442.31605 510.2799 455.5 516.25 C 475.83878 525.46001 475.475 533.52874 479.3125 537.75 C 483.15001 541.97125 482.38875 556.55125 483.15625 561.15625 C 483.92375 565.76126 491.56833 579.41986 490.8125 577.65625 C 487.35875 569.59749 484.6875 540.0625 484.6875 540.0625 C 484.6875 540.0625 490.045 562.32374 490.8125 567.3125 C 491.58 572.30126 500.04249 589.55748 505.03125 598 C 510.02001 606.44251 519.96875 609.90625 519.96875 609.90625 C 519.96875 609.90625 511.9225 601.8375 508.46875 598 C 505.01499 594.16249 506.15749 589.56749 508.84375 590.71875 C 508.99078 590.78175 509.14699 590.87207 509.3125 590.96875 C 509.3419 590.98595 509.37625 590.9818 509.40625 591 C 509.54807 591.0857 509.69062 591.17427 509.84375 591.28125 C 509.90165 591.32185 509.94055 591.36275 510 591.40625 C 510.32117 591.63891 510.64231 591.91264 511 592.21875 C 511.13924 592.33806 511.26254 592.43369 511.40625 592.5625 C 511.70013 592.82458 511.97399 593.08048 512.28125 593.375 C 512.50308 593.58787 512.71112 593.77394 512.9375 594 C 513.17892 594.24025 513.41274 594.49897 513.65625 594.75 C 513.94432 595.04769 514.21306 595.34975 514.5 595.65625 C 515.1201 596.31756 515.73528 596.97537 516.3125 597.625 C 516.70715 598.06957 517.14394 598.55735 517.5 598.96875 C 517.85747 599.38301 518.26448 599.86621 518.5625 600.21875 C 518.91645 600.63744 519.35538 601.18271 519.59375 601.46875 C 521.5125 603.77126 527.65625 619.875 527.65625 619.875 C 527.65625 619.875 527.66875 616.4175 525.75 611.8125 C 523.83125 607.20749 523.06626 596.45375 521.53125 593 C 520.2816 590.18829 515.65153 583.0878 513.90625 580.4375 C 513.89625 580.4285 513.8849 580.41565 513.875 580.40625 C 513.49691 579.83234 513.0625 579.1875 513.0625 579.1875 C 513.0625 579.1875 520.05114 580.5639 522.28125 583.03125 C 522.49409 583.26673 522.70269 583.51933 522.90625 583.78125 C 523.28242 584.26392 523.62376 584.78257 523.96875 585.34375 C 524.18771 585.70042 524.41808 586.0533 524.625 586.4375 C 524.92001 586.98389 525.19781 587.56305 525.46875 588.15625 C 526.34699 590.07994 527.07234 592.21073 527.71875 594.40625 C 528.0865 595.65696 528.42005 596.90523 528.71875 598.15625 C 528.73375 598.21875 528.7352 598.28137 528.75 598.34375 C 529.00584 599.4259 529.2608 600.49568 529.46875 601.53125 C 529.55255 601.9462 529.64223 602.37831 529.71875 602.78125 C 530.0391 604.48377 530.29991 606.11006 530.5 607.46875 C 530.504 607.47975 530.496 607.4889 530.5 607.5 C 530.90667 610.26613 531.125 612.1875 531.125 612.1875 C 531.125 612.1875 532.57096 597.97899 531.125 591.09375 C 529.22975 582.06906 519.96875 565.78125 519.96875 565.78125 C 530.33002 570.77001 543.015 594.94499 546.46875 601.46875 C 549.92251 607.99251 541.8475 583.80626 540.3125 579.96875 C 538.7775 576.13124 526.8875 560.0125 524.96875 558.09375 C 524.49803 557.62303 522.99324 555.7852 521 553.28125 C 526.95477 559.01167 534.70809 564.5164 537.25 567.3125 C 541.08751 571.53376 554.90625 587.625 554.90625 587.625 C 554.90625 587.625 547.8638 574.41776 543.40625 568.4375 C 539.78089 563.5737 531.125 555.03125 531.125 555.03125 C 531.125 555.03125 542.23123 561.15249 549.90625 562.6875 C 557.58126 564.2225 554.52376 562.31125 548 559.625 C 541.47624 556.93875 530.34375 544.65625 530.34375 544.65625 C 530.34375 544.65625 541.84624 549.255 547.21875 550.40625 C 552.59126 551.5575 564.875 551.9375 564.875 551.9375 C 564.875 551.9375 552.72654 549.92136 547.21875 547.34375 C 541.23891 544.54522 531.125 535.84375 531.125 535.84375 C 531.125 535.84375 544.39078 541.26483 551.4375 541.96875 C 558.21347 542.64562 569.54691 541.29265 571.78125 540.0625 C 558.34998 540.44626 539.16126 537.75251 530.71875 533.53125 C 522.27624 529.31 511.14753 510.12128 492.34375 492.46875 C 473.53998 474.81623 455.56186 483.2505 439 489.78125 C 430.71869 493.04677 420.94461 506.20754 417.21875 511.5625 C 414.9567 510.13532 412.513 509.00382 409.84375 508.21875 C 390.27247 502.46249 381.07127 500.52499 371.09375 506.28125 C 361.11624 512.03751 343.85251 519.71875 333.875 519.71875 C 332.26248 519.71875 330.24132 519.44271 328.03125 519.03125 C 328.06515 518.83795 328.0901 518.60737 328.125 518.40625 C 328.57383 515.8219 329.074 512.94076 329.5 509.875 C 329.5598 509.44566 329.60093 509.04691 329.65625 508.625 C 329.776 507.70978 329.87736 506.78665 329.96875 505.9375 C 330.09578 504.76397 330.19948 503.70296 330.25 502.75 C 330.253 502.6935 330.247 502.64926 330.25 502.59375 C 330.2714 502.15637 330.28105 501.74553 330.28125 501.375 C 330.28127 501.3158 330.28181 501.276 330.28125 501.21875 C 330.27825 500.81132 330.2842 500.46152 330.25 500.15625 C 329.95306 497.48376 327.97188 494.42778 326.21875 492.1875 C 326.20735 492.1815 326.199 492.16195 326.1875 492.15625 C 325.94776 491.85064 325.6937 491.55196 325.46875 491.28125 C 325.09082 490.83055 324.73864 490.42411 324.4375 490.09375 C 324.3384 489.98331 324.3682 490.00105 324.28125 489.90625 C 323.76731 489.34896 323.4375 489.03125 323.4375 489.03125 C 323.4375 489.03125 324.75052 483.07435 326.375 475.21875 C 326.91699 472.60436 327.48438 469.78991 328.0625 466.90625 C 328.64127 464.0124 329.20767 461.07999 329.75 458.21875 C 330.28998 455.37753 330.81748 452.63632 331.25 450.125 C 331.252 450.1143 331.248 450.10435 331.25 450.09375 C 331.68147 447.58721 332.0285 445.31695 332.28125 443.4375 C 332.28325 443.426 332.27925 443.41765 332.28125 443.40625 C 332.53418 441.52139 332.6875 440.04348 332.6875 439.09375 C 332.6875 438.14889 332.7505 437.20501 332.84375 436.28125 C 332.84675 436.25005 332.84075 436.2186 332.84375 436.1875 C 332.93805 435.27212 333.07827 434.40467 333.1875 433.53125 C 333.214 433.32528 333.2251 433.14048 333.25 432.9375 C 333.3304 432.26117 333.39884 431.60514 333.4375 430.96875 C 333.70779 426.84811 332.74801 423.66048 325.625 422.8125 C 318.6193 421.97849 279.48643 408.71875 275.6875 408.71875 C 271.88856 408.71875 263.20308 401.12811 255.0625 399.5 C 246.92192 397.87188 241.51247 400.56773 235 403.28125 C 228.48754 405.99478 223.04894 405.46041 219.25 404.375 C 217.94082 404.00095 215.21711 401.79637 212.09375 398.8125 L 212.21875 398.84375 L 222.34375 397.34375 C 220.67852 397.48484 210.76583 396.0129 214.53125 393.84375 C 215.90228 393.05394 221.4375 392.3125 221.4375 392.3125 C 221.4375 392.3125 209.11501 390.1875 206.8125 390.1875 C 204.51 390.1875 202.62125 383.115 204.15625 380.8125 C 205.69125 378.51 209.53125 378.5 209.53125 378.5 L 206.46875 376.1875 L 212.96875 373.125 C 212.96875 373.125 204.535 373.88375 203 373.5 C 201.465 373.11625 206.96737 366.74913 210.28125 365.0625 C 214.3995 362.96647 224.125 363.90625 224.125 363.90625 L 213.375 358.53125 L 219.125 357.78125 C 219.125 357.78125 207.21875 355.4725 207.21875 353.9375 C 207.21875 352.4025 210.60331 349.17627 214.5625 348.46875 C 217.15551 348.00538 233.76304 348.47475 234.09375 348.9375 L 226.03125 345.125 C 226.03125 345.125 230.13124 343.11625 233.96875 343.5 C 237.80625 343.88375 245.59375 344.71875 245.59375 344.71875 C 237.79826 340.64066 228.72044 339.4657 219.5 338.59375 L 234.09375 336.28125 C 234.09375 336.28125 224.57425 333.71327 219.6875 333.3125 C 210.95191 332.59607 193.40625 334.375 193.40625 334.375 L 205.3125 330.90625 C 205.3125 330.90625 198.405 330.90125 195.71875 329.75 C 193.03249 328.59875 185.73125 328.21875 183.8125 328.21875 z M 267.5625 429.875 C 267.5625 429.875 268.35618 430.08402 269.6875 430.40625 C 269.7055 430.41025 269.70065 430.40225 269.71875 430.40625 C 272.13901 430.99191 276.27384 431.98619 280.3125 432.84375 C 280.71475 432.92925 281.10094 433.01109 281.5 433.09375 C 283.72392 433.55419 285.85323 433.94617 287.625 434.21875 C 294.68017 435.30416 305.53125 436.40625 305.53125 436.40625 C 305.53125 436.40625 309.91863 455.44505 310.4375 465.15625 C 310.78044 471.57481 309.34311 479.77396 309.25 484.40625 C 309.1864 487.57009 306.03748 487.71252 302.78125 490.96875 C 299.52502 494.22498 298.5 501.53125 298.5 501.53125 C 298.5 501.53125 297.38322 506.32325 297 509.21875 C 296.4564 508.99306 295.82397 508.74101 295.5 508.59375 C 291.27875 506.67499 285.5 497.46875 285.5 497.46875 L 285.21875 502.5625 C 283.07075 500.49083 280.38623 497.79408 278.40625 495.53125 C 274.60732 491.1896 271.88646 484.16249 271.34375 480.90625 C 270.80105 477.65002 269.73855 447.78748 270.28125 444.53125 C 270.51391 443.13532 270.04533 440.25506 269.4375 437.40625 C 269.33252 436.91329 269.2298 436.45759 269.125 436 C 269.0981 435.8825 269.0896 435.80383 269.0625 435.6875 C 268.78386 434.48821 268.49187 433.38435 268.25 432.46875 C 268.1603 432.12921 268.14378 432.01922 268.0625 431.71875 C 267.83044 430.84353 267.72156 430.51283 267.65625 430.28125 C 267.64245 430.23005 267.5625 429.875 267.5625 429.875 z M 495.4375 517.40625 C 495.4375 517.40625 510.58585 536.36038 514.15625 544.5 C 508.92858 537.70663 503.68533 530.69285 503.09375 529.3125 C 501.9425 526.62624 495.4375 517.40625 495.4375 517.40625 z M 221.40625 614.6875 C 220.3997 616.01004 219.5527 617.13474 218.5625 618.4375 L 218 615.875 C 218 615.875 220.81769 614.89294 221.40625 614.6875 z M 398.40625 704.03125 C 399.37621 706.13327 400.42713 708.24001 401.46875 710.3125 C 399.42805 708.51625 397.84317 706.32581 398.40625 704.03125 z "
       style="color:#000000;fill:#000000;fill-opacity:1;fill-rule:nonzero;stroke:none;stroke-width:1;marker:none;visibility:visible;display:inline;overflow:visible;enable-background:accumulate"
       id="path5777"
       d="m 183.8125,325.15625 c -2.19271,0 -3.73167,0.7312 -5.40625,1.34375 -1.30052,0.47572 -1.96209,0.74999 -2.40625,0.9375 -0.76359,-0.008 -7.1964,-0.0547 -9,-0.3125 -1.58596,-0.22657 -2.77474,0.31617 -3.71875,0.875 -0.94401,0.55883 -1.74519,1.23105 -2.46875,1.9375 -1.34222,1.31049 -2.35931,2.69031 -3.09375,3.6875 -1.10922,0.83393 -2.22445,1.69415 -3.15625,2.78125 -0.74309,0.86694 -4.75512,3.30246 -8.3125,5.3125 -1.77869,1.00502 -3.4726,1.98542 -4.875,3.0625 -0.7012,0.53854 -1.32696,1.10009 -1.90625,1.90625 -0.57929,0.80616 -1.18691,2.18958 -0.75,3.71875 a 3.0703115,3.0703115 0 0 0 0.75,1.3125 c 0,0 1.09397,1.12257 2,2.375 0.45302,0.62621 0.82123,1.28511 0.96875,1.65625 -1.46927,2.9702 -7.90625,16.34375 -7.90625,16.34375 A 3.0703115,3.0703115 0 0 0 137.625,376.5 l 1.46875,-0.15625 -0.46875,3.125 a 3.0703115,3.0703115 0 0 0 -0.0312,0.75 l 0.4375,5.09375 -0.4375,0.90625 c -0.43182,0.2751 -1.1749,0.72315 -2.53125,1.75 -1.69261,1.28142 -3.65036,2.73959 -4.9375,4.9375 -1.77429,3.02976 -2.68507,6.74995 -3.25,10.15625 -0.56493,3.4063 -0.76246,6.28161 -0.5625,8.28125 0.15359,1.53582 1.25955,3.06765 2.4375,3.71875 1.17795,0.6511 2.24724,0.72122 3.125,0.71875 1.75553,-0.005 3.15625,-0.46875 3.15625,-0.46875 a 3.0703115,3.0703115 0 0 0 2.03125,-2.03125 c 0,0 1.16528,-3.72569 1.8125,-5.34375 0.55173,-1.37933 3.35027,-5.89361 5.28125,-7.375 0.1635,-0.12543 1.57461,-0.78539 2.75,-1.15625 1.14373,-0.36087 2.04302,-0.58215 2.09375,-0.59375 0.001,-3.2e-4 0.0625,0 0.0625,0 l 0,-0.0312 c 0.82764,-0.17487 1.57654,-0.37907 2.34375,-0.875 0.1404,-0.0908 0.2644,-0.2833 0.40625,-0.40625 l 21,-4.78125 2.875,-0.65625 c 0.1066,0.15321 0.13758,0.20723 0.40625,0.59375 0.52364,0.75384 1.10134,1.5601 1.75,2.53125 0.02,0.03 0.011,0.0634 0.0312,0.0937 a 3.0703115,3.0703115 0 0 0 0.125,0.15625 3.0703115,3.0703115 0 0 0 0,0.0312 c 1.46084,2.19962 3.10534,4.82817 4.34375,7.125 1.23841,2.29683 1.90625,4.65338 1.90625,4.5 0,2.44 -0.60193,6.03296 -1.0625,8.5625 -0.47541,-0.0237 -0.81437,-0.12872 -1.34375,-0.0937 -2.68289,0.17721 -6.34673,1.48413 -8.53125,5.125 -2.23975,3.73291 -2.61447,8.556 -2.46875,13.21875 0.14572,4.66275 0.82361,8.95972 2.34375,12 2.05243,4.10486 4.64731,8.88875 5.0625,9.65625 l -0.96875,28.84375 -4.8125,1.125 c 0.0694,-1.15416 0.10678,-2.33807 -0.125,-3.59375 -0.11891,-0.6442 -0.30089,-1.34295 -0.75,-2.09375 -0.44911,-0.7508 -1.34356,-1.60932 -2.53125,-1.90625 -2.23877,-0.55969 -4.91461,-0.93341 -5.59375,-1.03125 -0.43005,-0.27145 -2.37671,-1.50713 -5.09375,-3.03125 -1.49978,-0.8413 -3.11509,-1.70232 -4.59375,-2.375 -1.47866,-0.67268 -2.52757,-1.28125 -4.4375,-1.28125 -0.95174,0 -3.50303,-0.26365 -5.9375,-0.46875 -2.43447,-0.2051 -4.47124,-0.54626 -6.78125,0.0312 -1.797,0.44925 -2.71778,1.70748 -3.28125,2.71875 -0.56347,1.01127 -0.8545,2.00735 -1.09375,2.9375 -0.37384,1.45342 -0.44567,2.26162 -0.5,2.78125 -0.17836,0.32156 -0.5356,0.9539 -1.125,2.1875 -0.71668,1.50001 -1.52364,3.23559 -1.84375,5.15625 -0.36186,2.17126 -0.0951,4.16193 -0.40625,6.15625 -0.2436,1.56155 -0.62803,3.23753 -0.96875,4.71875 -0.34072,1.48122 -0.6875,2.48634 -0.6875,4 0,1.57747 0.69505,2.72727 1.40625,3.59375 0.7112,0.86648 1.52677,1.54589 2.375,2.15625 1.69647,1.22071 3.57329,2.17302 5,2.8125 0.52286,0.23436 0.97123,0.37537 1.34375,0.5 0.008,0.003 0.0237,-0.003 0.0312,0 0.27488,0.0944 0.53668,0.17689 0.78125,0.25 a 3.0703115,3.0703115 0 0 0 0.0625,0.0312 c 0.006,0.002 0.0954,0.006 0.1875,0.0312 0.0332,0.009 0.0181,0.0196 0.0625,0.0312 l 0,-0.0312 c 2.93797,0.83035 6.15102,1.1427 9.03125,1.0625 1.44969,-0.0404 2.8049,-0.17805 4.03125,-0.4375 1.22635,-0.25945 2.34509,-0.49176 3.53125,-1.5 a 3.0703115,3.0703115 0 0 0 0.5625,-0.65625 l 1.21875,-1.875 3.75,-0.53125 c 0.50328,0.63589 0.64525,0.8898 1.6875,1.90625 -2e-5,-2e-5 0.0283,0.029 0.0312,0.0312 2e-5,2e-5 0.0294,0.0302 0.0312,0.0312 0.001,6.6e-4 0.0294,-0.001 0.0312,0 0.11297,0.0629 1.40518,0.81225 1.40625,0.8125 5.5e-4,1.3e-4 -0.71921,-0.28149 -0.71875,-0.28125 4e-4,2.1e-4 -0.53004,-0.38044 -0.6875,-0.5 0.96172,0.9233 2.16042,1.92114 3.5625,2.90625 l 0,0.0312 c 0.007,0.005 0.0239,-0.005 0.0312,0 0.69948,0.49157 1.46579,1.02433 2.3125,1.5 0.83009,0.46587 1.69952,0.89563 2.625,1.28125 1.66847,0.69519 3.54232,1.41593 5.5,2.0625 0.0222,0.007 0.01,-0.007 0.0312,0 0.0216,0.007 0.0103,-0.006 0.0312,0 3.39804,1.11912 6.85016,2.08602 10.15625,1.6875 0.46187,-0.0566 0.93898,-0.17793 1.40625,-0.3125 0.0129,-0.004 0.0184,-0.0274 0.0312,-0.0312 1.91204,-0.57016 3.88236,-2.31436 4.375,-4.53125 0.5351,-2.40791 1.57867,-6.87517 2.53125,-11.09375 0.95462,-4.20698 1.79765,-8.08199 2.09375,-9.5625 0.30469,-1.52347 1.31085,-7.04476 2.25,-12.34375 -0.0572,0.26883 -0.28824,0.76387 -0.28125,0.75 0.006,-0.0125 0.19826,-0.4649 0.28125,-0.78125 0.003,-0.0113 -0.003,-0.0203 0,-0.0312 0.009,-0.0366 0.0256,-0.0617 0.0312,-0.0937 0.34112,-1.92491 0.37344,-2.09855 0.65625,-3.71875 1.12139,1.3802 1.28362,1.54845 2.625,3.25 1.74803,2.21738 3.52801,4.55002 4.90625,6.46875 1.37824,1.91873 2.43669,3.87257 2.34375,3.59375 0.65469,1.96408 1.80551,2.98715 3.125,4.25 1.31949,1.26285 2.88227,2.52162 4.375,3.65625 0.54967,0.41781 0.91001,0.65737 1.25,0.90625 0.31643,0.23195 0.68138,0.54635 1.1875,0.90625 0.54103,0.38341 0.95602,0.68372 1.375,0.96875 0.006,0.004 0.0248,-0.004 0.0312,0 0.78978,0.54371 1.06662,0.72744 1.34375,0.90625 l 8.375,12.3125 0.125,2.5625 -5.75,5.5625 a 3.0703115,3.0703115 0 0 0 0.84375,5 l -0.78125,0.71875 a 3.0703115,3.0703115 0 0 0 1.53125,5.3125 c -0.84154,5.02417 -3.53068,20.9977 -4.71875,25.75 -0.40123,1.6049 -0.35796,3.16642 -0.21875,5.1875 0.13921,2.02108 0.43408,4.39373 0.84375,7 0.7034,4.47499 1.86798,9.63565 3.0625,14.59375 -8.79336,4.74421 -20.76304,10.5698 -23.6875,12 -2.3283,1.13865 -4.80879,2.44331 -6.90625,3.96875 -2.09746,1.52544 -4.21694,3.14296 -4.5625,6.21875 -0.39764,3.53919 -0.24745,11.1369 4.40625,16.96875 0.36876,0.46211 1.51653,2.38142 2.75,4.8125 1.00887,1.98842 2.19474,4.55966 3.375,7.15625 -1.31402,1.77218 -2.68158,3.60169 -3.15625,4.3125 -1.88469,2.82233 -2.95071,6.15727 -3.25,9.28125 -0.14964,1.56199 -0.10246,3.09754 0.28125,4.5625 0.38371,1.46496 1.17523,3.0315 2.8125,3.96875 -0.11766,-0.0674 1.03994,0.7597 2.3125,1.84375 1.27256,1.08405 2.91121,2.54595 4.71875,4.1875 3.50003,3.17862 7.64773,7.08977 11.28125,10.59375 1.28206,2.52684 2.57714,4.95446 2.9375,5.78125 0.64705,1.48454 1.26679,1.92547 2.25,2.96875 0.98321,1.04328 2.25778,2.29207 3.75,3.6875 2.91588,2.72674 6.68825,6.04586 10.625,9.3125 4.02656,5.04556 7.98553,10.23164 10.1875,13.625 1.6434,2.53256 3.99234,5.32334 6.53125,8.125 0.59914,0.66107 1.18359,1.27036 1.75,1.875 0.55312,0.59034 1.11742,1.218 1.75,1.875 0.2413,0.25079 0.40901,0.40607 0.5,0.5 0.65393,0.67458 1.31717,1.37517 2,2.0625 0.864,0.87052 1.70126,1.71608 2.5,2.5 0.97871,0.9596 1.86492,1.80336 2.59375,2.5 1.36135,1.30047 2.40625,2.28125 2.40625,2.28125 a 3.0703115,3.0703115 0 0 0 3.625,0.40625 c 0.83086,-0.47508 1.59582,-0.94637 2.3125,-1.40625 11.2227,-7.19766 16.81845,-16.94856 21.5625,-26.34375 a 3.0703115,3.0703115 0 0 0 -0.59375,-3.53125 l -0.0312,-0.0312 a 3.0703115,3.0703115 0 0 0 -0.75,-0.5625 l -14.9375,-7.65625 a 3.0703115,3.0703115 0 0 0 -3.21875,0.25 c 0,0 -0.28358,0.19053 -0.6875,0.46875 0.24848,-0.13354 0.79377,-0.35624 0.75,-0.34375 -0.0431,0.0123 -0.53203,0.25185 -0.8125,0.40625 -0.0432,0.0237 -0.0954,0.0424 -0.125,0.0625 -0.53889,0.36635 -1.14415,0.77156 -1.875,1.21875 -0.0582,0.0357 -0.12657,0.0887 -0.34375,0.21875 a 3.0703115,3.0703115 0 0 0 -0.0312,0 c -0.35224,0.21123 -0.63244,0.37717 -0.90625,0.53125 -0.0653,0.0368 -0.24072,0.14075 -0.5,0.28125 -0.20347,0.11024 -0.33715,0.19406 -0.5,0.28125 0.18565,-0.3749 0.38172,-0.7476 0.5625,-1.125 a 3.0703115,3.0703115 0 0 0 0,-0.0312 c 0.006,-0.0123 0.0254,-0.0189 0.0312,-0.0312 0.0249,-0.0561 0.01,-0.0716 0.0312,-0.125 1.63913,-3.43824 3.08344,-6.9175 4.1875,-10.5 0.007,-0.0209 -0.006,-0.0109 0,-0.0312 0.22204,-0.72177 0.42843,-1.4473 0.625,-2.1875 0.38717,-1.45453 0.73575,-2.92195 1,-4.4375 0.13332,-0.7657 0.21988,-1.53973 0.3125,-2.28125 a 3.0703115,3.0703115 0 0 0 -2.75,-3.4375 l -16.0625,-1.40625 a 3.0703115,3.0703115 0 0 0 -2.78125,1.28125 c 0,0 -0.0623,0.0994 -0.21875,0.3125 a 3.0703115,3.0703115 0 0 0 -0.0312,0.0312 c -0.20468,0.28472 -0.0696,0.15263 -0.21875,0.34375 a 3.0703115,3.0703115 0 0 0 -0.0312,0 c -0.0702,0.0914 -0.15158,0.20212 -0.34375,0.4375 -0.12864,0.15676 -0.18775,0.20818 -0.25,0.28125 a 3.0703115,3.0703115 0 0 0 0,0.0312 c 0.0375,-0.0445 -0.0764,0.0467 -0.28125,0.28125 -0.0877,0.0995 -0.24957,0.26518 -0.53125,0.5625 a 3.0703115,3.0703115 0 0 0 -0.0312,0.0312 c -0.0597,0.0634 -0.12602,0.12347 -0.1875,0.1875 -1.81292,-0.0182 -3.67966,0.0104 -5.40625,0.0937 -2.09938,0.10129 -3.94223,0.10276 -4.9375,-0.0312 -0.0847,-0.0416 -0.24003,-0.0917 -0.4375,-0.25 -0.19156,-0.15355 -0.52568,-0.51057 -0.78125,-0.75 0.16282,-0.92108 0.33585,-1.80358 0.53125,-3.09375 0.27823,-1.83706 0.39627,-4.16904 -0.78125,-6.4375 a 3.0703115,3.0703115 0 0 0 0,-0.0312 c -3.91897,-7.40491 -7.30672,-10.21105 -9.46875,-11.71875 -2.15189,-1.50063 -2.23292,-0.83022 -3.03125,-4.375 l 0,-0.0312 -1.0625,-4.71875 c 3.25799,-4.09535 7.33879,-9.12706 11.25,-13.65625 4.23053,-4.89897 8.56942,-9.2399 9.6875,-9.9375 2.10486,-1.31328 5.24189,-3.56361 8.375,-5.875 0.26979,0.0634 0.52445,0.12306 0.8125,0.1875 1.58318,0.35464 3.17598,0.67397 4.875,1 a 3.0703115,3.0703115 0 0 0 0.0312,0 c -0.0768,-0.0147 0.007,0.0416 0.28125,0.0937 1.54775,0.29421 3.08583,0.52998 4.65625,0.78125 1.43221,0.22925 2.88462,0.42873 4.375,0.625 0.13538,0.0178 0.41485,0.0709 0.84375,0.125 2.68647,0.33931 5.40901,0.61383 8.21875,0.8125 1.87599,0.13248 3.79443,0.22395 5.71875,0.28125 0.25966,0.008 0.3222,0.004 0.1875,0 0.86688,0.0245 1.77767,0.055 2.71875,0.0625 0.20035,0.001 0.39145,-5.6e-4 0.53125,0 1.10209,0.004 2.17458,-0.007 3.28125,-0.0312 0.35405,-0.008 0.63545,-0.0263 0.8125,-0.0312 0.369,-0.0105 0.78293,-0.0132 1.25,-0.0312 1.98312,-0.0761 3.97606,-0.19592 5.96875,-0.375 1.7651,-0.15912 3.54515,-0.37712 5.3125,-0.625 0.19236,-0.027 0.40804,-0.0526 0.6875,-0.0937 0.86964,-0.12807 1.76068,-0.24998 2.65625,-0.40625 0.14829,-0.0259 0.25631,-0.0469 0.34375,-0.0625 0.99576,-0.17751 1.99497,-0.38157 3,-0.59375 15.57027,-3.28706 30.74005,-8.1591 43.0625,-12.5625 4.70024,5.26125 10.0682,10.45249 15.65625,14.5625 6.12955,4.50829 12.33825,7.86237 18.28125,8.4375 0.83316,0.0806 1.71205,0.11811 2.59375,0.15625 4.29428,2.31195 8.39046,4.29168 11.6875,5.6875 1.59892,0.67691 2.89267,1.2274 4.09375,1.65625 -4.9378,5.21259 -10.38857,10.9325 -11.625,12.375 -0.20716,0.24169 -1.47429,1.42009 -3.03125,2.75 -1.55696,1.32991 -3.4662,2.95919 -5.375,4.71875 -3.8176,3.51913 -7.86973,7.13857 -8.78125,12 -0.83648,4.46122 1.20007,8.48948 3.125,11.9375 1.92493,3.44802 4.01639,6.75255 4.25,7.53125 0.35283,1.17608 1.38786,3.87613 2.5625,6.84375 -0.0158,0.0299 -0.0157,0.064 -0.0312,0.0937 -3.77084,7.21652 -9.11015,15.18318 -13.5625,23.03125 -0.2006,0.35359 -0.38454,0.64347 -0.53125,0.90625 -0.057,0.10211 -0.10645,0.1916 -0.15625,0.28125 -0.2136,0.38468 -0.45339,0.82157 -0.71875,1.3125 -0.24761,0.45798 -0.48249,0.89047 -0.6875,1.28125 -0.48666,0.92837 -0.91695,1.83616 -1.34375,2.71875 -0.2415,0.49939 -0.51168,1.03219 -0.78125,1.625 -0.22077,0.48463 -0.45777,1.02237 -0.6875,1.5625 -0.0892,0.21021 -0.15478,0.30898 -0.15625,0.3125 -0.28605,0.68375 -0.50605,1.30892 -0.71875,1.875 a 3.0703115,3.0703115 0 0 0 0,0.0312 c -0.17601,0.46955 -0.34211,0.90969 -0.5,1.375 -0.17089,0.50292 -0.35488,1.05547 -0.53125,1.65625 -0.2224,0.75756 -0.42961,1.54362 -0.59375,2.28125 -0.0367,0.16522 -0.0417,0.20503 -0.0312,0.15625 -0.17444,0.80598 -0.30351,1.61558 -0.40625,2.4375 a 3.0703115,3.0703115 0 0 0 2.4375,3.375 c 0.68145,0.13677 1.35601,0.28497 2.0625,0.40625 1.38147,0.23715 2.8089,0.45656 4.25,0.625 0.69975,0.0818 1.39056,0.1519 2.125,0.21875 0.57178,0.0522 0.5898,0.0515 0.0312,0 0.7347,0.0666 1.49072,0.11018 2.1875,0.15625 3.64099,0.24073 7.32707,0.26829 11.15625,0.0937 3.06676,-0.13976 6.21024,-0.39619 9.375,-0.78125 1.5904,-0.19351 3.176,-0.43715 4.78125,-0.6875 a 3.0703115,3.0703115 0 0 0 2.59375,-2.65625 L 409.75,728.875 a 3.0703115,3.0703115 0 0 0 2.90625,0.625 c 0.88014,-0.27054 1.7137,-0.59376 2.5,-0.90625 1.62254,-0.64659 3.19245,-1.3864 4.65625,-2.25 0.72045,-0.42515 1.42218,-0.8821 2.09375,-1.34375 0.71317,-0.4909 1.38126,-1.01328 2,-1.5 3.20249,-2.52023 5.98719,-5.43441 8.53125,-8.5 l -0.0312,0 c 10e-6,-10e-6 -4.5e-4,-0.0303 0,-0.0312 l 0.0312,0 c 6.6e-4,-0.001 -0.001,-0.029 0,-0.0312 3.03806,-3.66455 5.77629,-7.47839 8.59375,-11.03125 a 3.0703115,3.0703115 0 0 0 -0.78125,-4.5 l -14.59375,-9.21875 a 3.0703115,3.0703115 0 0 0 -3.46875,0.125 c 0,0 -0.24631,0.18979 -0.78125,0.53125 a 3.0703115,3.0703115 0 0 0 -0.0312,0.0312 c -0.0855,0.0565 0.008,0.001 -0.1875,0.125 -0.44789,0.27959 -0.95249,0.58728 -1.5,0.875 0.7973,-2.4889 0.64408,-5.12193 0.40625,-7.375 -0.26632,-2.52295 -0.64021,-3.74036 -0.875,-4.625 0.68172,-1.24531 16.20326,-29.58204 23.8125,-43.1875 2.53286,-2.24337 4.71744,-4.21975 5.90625,-5.5 2.92575,-3.15081 5.16614,-7.38202 5.8125,-11.78125 0.32318,-2.19961 0.23841,-4.47647 -0.625,-6.625 -0.86341,-2.14853 -2.56858,-4.08117 -4.90625,-5.25 -4.03235,-2.01618 -7.56185,-2.22908 -10.25,-2.90625 -2.68815,-0.67717 -4.74342,-1.52411 -7.53125,-5.0625 -1.62129,-2.05779 -3.13612,-4.45011 -4.625,-6.84375 0.028,-0.0691 0.0671,-0.11654 0.0937,-0.1875 -0.11491,0.30642 0.10771,-0.13586 0.59375,-0.71875 0.48604,-0.58289 1.1981,-1.38107 2.03125,-2.34375 1.66631,-1.92537 3.79264,-4.54143 5.75,-7.96875 1.09159,-1.90582 2.12069,-4.05188 3,-6.46875 0.17736,-0.4888 0.3703,-0.99871 0.53125,-1.5 0.33126,-1.02897 0.61634,-2.07362 0.875,-3.15625 0.26186,-1.0988 0.47141,-2.2656 0.65625,-3.4375 0.37252,-2.36707 0.59375,-4.92873 0.59375,-7.6875 0,-1.39201 -0.0568,-2.75338 -0.125,-4.09375 -0.0347,-0.68744 -0.0731,-1.34514 -0.125,-2.03125 -0.0476,-0.62787 -0.0797,-1.33701 -0.15625,-2.09375 -0.0768,-0.76019 -0.20204,-1.4365 -0.28125,-2.0625 -0.0885,-0.698 -0.17593,-1.40497 -0.28125,-2.09375 -0.0503,-0.3298 -0.0959,-0.66745 -0.15625,-1.03125 -0.0415,-0.24974 -0.0763,-0.58652 -0.15625,-1.03125 -0.0553,-0.30876 -0.13636,-0.6998 -0.21875,-1.125 -0.0249,-0.12776 -0.0451,-0.22487 -0.0625,-0.3125 -0.24191,-1.2213 -0.52714,-2.43987 -0.8125,-3.59375 -0.0815,-0.3287 -0.15502,-0.712 -0.28125,-1.1875 -0.0674,-0.25454 -0.1252,-0.49274 -0.1875,-0.71875 -0.31065,-1.12452 -0.67419,-2.25816 -1.03125,-3.34375 -0.0546,-0.16621 -0.10221,-0.30836 -0.15625,-0.46875 -0.16611,-0.49267 -0.34496,-1.01889 -0.53125,-1.53125 -0.0385,-0.10602 -0.0747,-0.20767 -0.125,-0.34375 -0.21651,-0.58493 -0.43703,-1.09265 -0.625,-1.5625 a 3.0703115,3.0703115 0 0 0 0,-0.0312 c 0.0198,0.0496 -0.004,-0.0281 -0.0937,-0.25 -0.2079,-0.51312 -0.42186,-1.0833 -0.6875,-1.6875 -0.93399,-2.1244 -2.13975,-4.06718 -3.3125,-6.03125 2.16144,-1.91773 4.75831,-3.80989 7.96875,-4.84375 4.02111,-1.29492 8.75483,-1.45065 14.71875,1.25 9.85623,4.4632 14.3689,8.4716 16.96875,11.75 2.59985,3.2784 3.23761,6.16448 5.84375,9.03125 0.66737,0.7341 1.90936,5.16717 2.28125,9.75 0.37189,4.58283 0.31531,9.11064 0.8125,12.09375 0.57456,3.44739 2.73319,7.67923 4.6875,11.53125 0.97715,1.92601 1.91156,3.62614 2.5625,4.78125 0.32547,0.57755 0.55685,0.99676 0.78125,1.34375 0.0561,0.0868 0.11983,0.14941 0.21875,0.28125 0.0495,0.0659 0.0847,0.16888 0.21875,0.3125 0.067,0.0718 0.14402,0.14446 0.3125,0.28125 0.0842,0.0684 0.21388,0.15265 0.375,0.25 0.16112,0.0974 0.71783,0.31223 0.71875,0.3125 9.2e-4,2.7e-4 1.56181,0.0627 1.5625,0.0625 3.6e-4,-8e-5 0.45029,-0.30391 0.90625,-0.59375 0.39615,0.8528 0.67094,1.57501 1.09375,2.46875 2.87375,6.07455 6.23885,12.51959 8.8125,16.875 5.71108,9.6649 16.59375,13.25 16.59375,13.25 a 3.0703115,3.0703115 0 0 0 2.46875,-0.21875 c 0.0184,0.0447 0.0441,0.0803 0.0625,0.125 1.75704,4.26822 3.28125,8.25 3.28125,8.25 a 3.0703115,3.0703115 0 0 0 5.9375,-1.09375 c 0,0 -0.23395,-2.1492 -0.875,-4.90625 A 3.0703115,3.0703115 0 0 0 534.1875,612.5 c 0,0 0.37766,-3.64354 0.5625,-8.15625 0.18484,-4.51271 0.22758,-9.81525 -0.625,-13.875 -0.5207,-2.47945 -1.47132,-5.24321 -2.59375,-8.03125 0.56368,0.80882 1.17935,1.45722 1.71875,2.28125 4.79441,7.32436 8.76662,14.91333 10.5,18.1875 0.24975,0.47175 0.45811,0.84585 0.75,1.25 0.14595,0.20208 0.29048,0.38645 0.6875,0.71875 0.19851,0.16615 0.44975,0.40534 0.96875,0.59375 0.519,0.18841 1.43764,0.28916 2.28125,-0.0625 1.68721,-0.70332 1.83057,-1.96434 1.90625,-2.4375 0.0757,-0.47316 0.0482,-0.73802 0.0312,-0.96875 -0.0338,-0.46145 -0.0992,-0.79707 -0.1875,-1.21875 -0.35329,-1.68671 -1.09985,-4.20403 -2,-7.09375 -1.8003,-5.77945 -4.12719,-12.5836 -5.03125,-14.84375 -0.014,-0.035 -0.048,-0.0899 -0.0625,-0.125 4.29784,4.96549 9.46875,10.90625 9.46875,10.90625 a 3.0703115,3.0703115 0 0 0 5.0625,-3.4375 c 0,0 -6.92405,-13.11924 -11.75,-19.59375 -0.5836,-0.78297 -1.54263,-1.71685 -2.28125,-2.59375 1.927,0.6741 3.8759,1.31893 5.71875,1.6875 2.00045,0.40009 3.25087,0.63433 4.46875,0.625 0.30447,-0.002 0.6112,-0.0353 1.03125,-0.125 0.42005,-0.0897 1.06394,-0.18944 1.8125,-0.96875 0.74856,-0.77931 0.99525,-2.42579 0.71875,-3.25 -0.2765,-0.82421 -0.64691,-1.14638 -0.90625,-1.40625 -1.03737,-1.03946 -1.7862,-1.29366 -2.96875,-1.875 -1.18255,-0.58134 -2.64111,-1.21803 -4.3125,-1.90625 -1.52076,-0.62619 -3.98046,-2.50014 -6.5,-4.59375 1.32292,0.39696 2.81471,0.98485 3.90625,1.21875 6.17462,1.32313 18.21875,1.59375 18.21875,1.59375 a 3.0703115,3.0703115 0 0 0 0.59375,-6.09375 c 0,0 -2.95481,-0.47423 -6.59375,-1.28125 -3.63894,-0.80702 -8.00263,-2.01075 -10.25,-3.0625 -0.0362,-0.0169 -0.0882,-0.0761 -0.125,-0.0937 0.9029,0.17057 1.88247,0.47896 2.71875,0.5625 3.75775,0.37537 8.38935,0.17294 12.5,-0.25 2.05532,-0.21147 3.95555,-0.46773 5.5625,-0.78125 1.60695,-0.31352 2.75162,-0.52828 4.0625,-1.25 A 3.0703115,3.0703115 0 0 0 571.6875,537 c -12.93785,0.36966 -32.34825,-2.596 -39.59375,-6.21875 -3.03958,-1.51979 -8.13322,-7.16666 -14.3125,-14.6875 -6.17928,-7.52084 -13.7575,-16.87566 -23.34375,-25.875 -9.93572,-9.32741 -20.23612,-11.99289 -29.84375,-11.21875 -9.60763,0.77414 -18.50473,4.69851 -26.71875,7.9375 -5.06655,1.99786 -9.66628,6.38424 -13.75,10.90625 -3.23212,3.57901 -5.82921,7.00307 -7.8125,9.75 -1.77594,-0.91481 -3.60603,-1.72788 -5.59375,-2.3125 -9.82113,-2.88857 -17.14601,-4.8852 -23.59375,-5.40625 -6.44774,-0.52105 -12.09077,0.59323 -17.5625,3.75 -9.67375,5.58101 -27.28563,13.03125 -35.6875,13.03125 -0.55248,0 -1.55095,-0.19628 -2.3125,-0.28125 0.33179,-1.94882 0.66297,-3.86194 0.96875,-6.0625 0.0691,-0.49608 0.10784,-0.91208 0.15625,-1.28125 0.12529,-0.95757 0.25185,-1.89609 0.34375,-2.75 0.1291,-1.19264 0.22535,-2.32056 0.28125,-3.375 0.019,-0.35766 0.0136,-0.40877 0,-0.15625 0.0238,-0.48611 0.031,-0.95239 0.0312,-1.375 10e-6,-0.041 8.8e-4,-0.097 0,-0.1875 -0.003,-0.36461 0.0362,-0.77271 -0.0312,-1.375 -0.43408,-3.90677 -2.79111,-7.1079 -4.6875,-9.53125 3.5e-4,4.5e-4 -0.0314,-0.0309 -0.0312,-0.0312 -0.0212,-0.0271 -0.0414,-0.036 -0.0625,-0.0625 a 3.0703115,3.0703115 0 0 0 -0.0937,-0.125 c -0.22453,-0.27841 -0.42788,-0.55039 -0.59375,-0.75 a 3.0703115,3.0703115 0 0 0 -0.0312,0 c -0.36061,-0.43005 -0.68361,-0.80549 -1,-1.15625 0.004,0.005 -0.0208,-0.0184 -0.0312,-0.0312 -0.002,-0.003 0.003,-0.0273 0,-0.0312 0.25673,-1.17047 1.15279,-5.28184 2.59375,-12.25 0.54444,-2.6262 1.10896,-5.45799 1.6875,-8.34375 0.58145,-2.90724 1.17506,-5.85033 1.71875,-8.71875 0.53713,-2.82621 1.06101,-5.54725 1.5,-8.09375 0.002,-0.01 -0.002,-0.0217 0,-0.0312 a 3.0703115,3.0703115 0 0 0 0,-0.0312 c 0.42918,-2.49323 0.74271,-4.75466 1,-6.65625 l 0.0312,0 c 0.001,-0.009 -0.001,-0.0225 0,-0.0312 0.009,-0.0534 -0.006,-0.0434 0,-0.0937 a 3.0703115,3.0703115 0 0 0 0,-0.0312 c 0.005,-0.0381 -0.005,-0.056 0,-0.0937 0.25089,-1.87806 0.4375,-3.37008 0.4375,-4.625 0,-0.8084 0.0701,-1.64668 0.15625,-2.5 a 3.0703115,3.0703115 0 0 0 0,-0.0312 c 0.0394,-0.41003 0.0132,-0.17168 0,-0.0625 -0.007,0.0546 0.0179,-0.21632 0,-0.0312 0.082,-0.78524 0.19661,-1.61009 0.3125,-2.53125 0.001,-0.0112 -0.001,-0.02 0,-0.0312 0.0374,-0.3003 0.0834,-0.50919 0.0937,-0.59375 0.0838,-0.70462 0.14329,-1.42843 0.1875,-2.15625 0.15406,-2.34874 7.1e-4,-5.07065 -1.78125,-7.375 -1.78196,-2.30435 -4.72493,-3.55579 -8.71875,-4.03125 -1.13636,-0.13528 -5.07525,-1.08823 -9.75,-2.4375 -4.67475,-1.34927 -10.34087,-3.07212 -15.90625,-4.78125 -5.56538,-1.70913 -11.02431,-3.42021 -15.375,-4.6875 -2.17534,-0.63364 -4.08037,-1.15042 -5.59375,-1.53125 -1.51338,-0.38083 -2.31967,-0.65625 -3.6875,-0.65625 0.0726,0 -0.98824,-0.24482 -2.3125,-0.90625 -1.32426,-0.66143 -2.9922,-1.62565 -4.84375,-2.6875 -3.70309,-2.1237 -8.11091,-4.60969 -12.875,-5.5625 -9.0361,-1.80722 -15.44051,1.26949 -21.84375,3.9375 -5.82024,2.4251 -10.40808,1.9459 -13.71875,1 0.14428,0.0412 -0.51687,-0.40538 -0.78125,-0.5625 l 3.46875,-0.5 a 3.0703115,3.0703115 0 0 0 0.78125,-5.84375 3.0703115,3.0703115 0 0 0 -1.59375,-5.25 c 0,0 -3.10498,-0.52706 -6.5,-1.0625 -1.69751,-0.26772 -3.48181,-0.54551 -5,-0.75 -1.14155,-0.15376 -1.92562,-0.19705 -2.75,-0.25 -0.19949,-0.31374 -0.51454,-0.94849 -0.71875,-1.6875 -0.21518,-0.77871 -0.34557,-1.64133 -0.34375,-2.28125 0.002,-0.63992 0.2423,-1.01971 0.0625,-0.75 0.22647,-0.33971 2.8125,-0.9375 2.8125,-0.9375 a 3.0703115,3.0703115 0 0 0 2.625,-4.65625 l 2.125,-1 a 3.0703115,3.0703115 0 0 0 -1.59375,-5.84375 c 0,0 -1.92609,0.18009 -3.9375,0.3125 1.11513,-1.03971 2.36974,-2.27354 2.9375,-2.5625 1.02318,-0.52076 4.3263,-1.00583 7.09375,-1.03125 2.76745,-0.0254 5.0625,0.1875 5.0625,0.1875 a 3.0703115,3.0703115 0 0 0 1.65625,-5.8125 l -3.71875,-1.84375 a 3.0703115,3.0703115 0 0 0 -2.0625,-4.53125 c 0,0 -2.92443,-0.57438 -5.78125,-1.3125 -0.73762,-0.19058 -1.27415,-0.39241 -1.9375,-0.59375 0.92306,-0.62009 2.00982,-1.1813 3.09375,-1.375 0.001,-2.2e-4 1.71641,-0.14268 3.59375,-0.15625 1.87734,-0.0136 4.17544,0.0358 6.40625,0.0937 2.23081,0.0579 4.38414,0.12059 5.96875,0.21875 0.7923,0.0491 1.45141,0.11131 1.84375,0.15625 0.19617,0.0225 0.33244,0.0353 0.3125,0.0312 -0.01,-0.002 -0.0399,2e-4 -0.21875,-0.0625 -0.17885,-0.0627 -0.551,0.13422 -1.40625,-1.0625 l 2.5,-1.78125 1.0625,-2.21875 c 4.04195,0.41519 10.125,1.0625 10.125,1.0625 a 3.0703115,3.0703115 0 0 0 1.75,-5.78125 c -3.35738,-1.75636 -6.92282,-2.89823 -10.53125,-3.8125 a 3.0703115,3.0703115 0 0 0 -1.59375,-4.875 c 0,0 -9.34094,-2.60095 -14.96875,-3.0625 -3.29841,-0.27051 -7.48237,-0.17623 -11.625,0 a 3.0703115,3.0703115 0 0 0 -3,-2.40625 c 0,0 -1.61831,-0.0194 -3.5625,-0.15625 -1.94419,-0.13682 -4.34362,-0.54905 -4.8125,-0.75 -2.15636,-0.92415 -4.64246,-1.18736 -7.15625,-1.4375 -2.51379,-0.25014 -4.80671,-0.34375 -5.96875,-0.34375 z M 162.875,507.875 c -0.004,-0.003 0.003,-0.0289 0,-0.0312 a 3.0703115,3.0703115 0 0 0 -0.0312,0.0312 3.0703115,3.0703115 0 0 0 0.0312,0 z m -19.4375,-120.5 c 0.16636,0.31669 0.45503,1.04704 0.1875,2 -0.26753,0.95296 -1.08566,1.61443 -1.53125,1.8125 l -1.125,-2.5 2.46875,-1.3125 z m 128.375,46.65625 c 2.36742,0.56499 4.85905,1.1721 7.875,1.8125 0.40342,0.0858 0.77955,0.1655 1.1875,0.25 2.26615,0.46918 4.43766,0.87262 6.28125,1.15625 6.31519,0.97157 13.64268,1.7128 15.8125,1.9375 0.69452,3.1268 3.97201,17.99782 4.40625,26.125 0.31113,5.82311 -1.0831,13.83706 -1.1875,19.03125 -0.0114,0.56495 0.23285,0.11785 -0.71875,0.78125 -0.9516,0.6634 -2.88158,1.72533 -4.84375,3.6875 -2.32603,2.32603 -3.42437,5.31666 -4.15625,7.78125 -0.69098,2.32686 -0.90696,4.03921 -0.9375,4.25 l -0.0312,0 c 0,0 -0.0291,0.24106 -0.0312,0.25 -0.027,0.1144 -0.37543,1.99974 -0.625,3.15625 -1.13322,-1.05292 -2.39099,-2.38352 -3.5,-3.8125 -1.8671,-2.4058 -3.25,-4.59375 -3.25,-4.59375 a 3.0703115,3.0703115 0 0 0 -5.15625,-0.0625 c -0.75017,-0.78958 -1.59386,-1.56709 -2.21875,-2.28125 -3.19627,-3.65289 -5.95684,-10.77231 -6.34375,-13.09375 -0.0373,-0.22371 -0.27139,-2.96798 -0.4375,-6.25 -0.16611,-3.28202 -0.33647,-7.40815 -0.46875,-11.53125 -0.13228,-4.1231 -0.21858,-8.25943 -0.25,-11.53125 -0.0157,-1.63591 -0.0209,-3.03901 0,-4.125 0.0209,-1.08599 0.10181,-1.98588 0.0937,-1.9375 0.45514,-2.73078 -0.24624,-5.3031 -0.875,-8.25 -0.10967,-0.515 -0.20614,-1.00434 -0.3125,-1.46875 0.008,0.0359 0.002,-0.0365 -0.0625,-0.3125 -0.0854,-0.36741 -0.16471,-0.6241 -0.25,-0.96875 z" />
    <path
       style="color:#000000;fill:#332216;fill-opacity:1;fill-rule:nonzero;stroke:none;stroke-width:1;marker:none;visibility:visible;display:inline;overflow:visible;enable-background:accumulate"
       d="m 351.51552,591.86151 c 9.21001,13.04752 26.86253,29.16504 38.7588,30.31629 11.89627,1.15125 34.53755,-2.3025 34.53755,-2.3025 0,0 -23.40878,24.56003 -25.71129,27.24629 -2.3025,2.68625 -15.35002,11.89627 -16.50127,18.03628 -1.15125,6.14 6.14001,14.19877 7.29126,18.03627 1.15125,3.83751 13.04752,34.53756 21.87378,43.36382 l 12.28002,-33.77005 c 0,0 -5.82436,4.30088 -9.97751,3.45375 -4.42046,-0.90165 -16.63023,-29.34681 -12.28002,-18.03628 0,0 9.21001,-1.535 9.97751,-4.22125 0.7675,-2.68626 -0.38375,-14.58252 -0.38375,-14.58252 0,0 30.31629,-24.94379 35.30505,-30.31629 4.98876,-5.37251 8.05876,-15.35003 1.15125,-18.80378 -6.90751,-3.45376 -12.48005,-0.79999 -18.80378,-8.82626 -9.97751,-12.66377 -17.26877,-32.23506 -17.26877,-32.23506 z"
       id="path4794"
       inkscape:connector-curvature="0"
       sodipodi:nodetypes="cscsssccscscssscc" />
    <path
       style="color:#000000;fill:#241c1c;fill-opacity:1;fill-rule:nonzero;stroke:none;stroke-width:1;marker:none;visibility:visible;display:inline;overflow:visible;enable-background:accumulate"
       d="m 424.03125,692.78125 c 0,0 -1.84902,1.39548 -4.21875,2.4375 l -7.09375,8.71875 -0.8125,3 -1.09375,-2.71875 -1.875,2.15625 -0.8125,3.28125 -1.375,-1.90625 -5.1875,2.75 c 3.36901,6.68325 6.96455,12.83955 10.1875,16.0625 12.55928,-3.86056 19.18237,-14.86196 26.875,-24.5625 l -14.59375,-9.21875 z"
       id="path4858"
       inkscape:connector-curvature="0" />
    <path
       style="color:#000000;fill:#332216;fill-opacity:1;fill-rule:nonzero;stroke:none;stroke-width:1;marker:none;visibility:visible;display:inline;overflow:visible;enable-background:accumulate"
       d="m 268.7149,599.87614 c 0,0 -16.12727,12.65136 -22.27022,16.48413 -6.14297,3.83278 -27.65456,31.83002 -27.65456,31.83002 0,0 18.0147,28.02766 22.61912,28.79871 4.60441,0.77104 14.96745,-1.52347 16.88384,1.54799 1.91638,3.07149 -1.5415,8.44134 -1.15983,11.12789 0.3817,2.68654 5.74771,11.13318 9.58579,10.36865 l 1.8963,29.16651 c 0,0 -14.57217,-13.44249 -19.55502,-21.12134 -4.98284,-7.67886 -17.25134,-22.65458 -22.61941,-28.41497 -5.36809,-5.76039 -23.77481,-23.04334 -26.45988,-24.58041 -2.68507,-1.53706 -1.91196,-8.82773 1.16159,-13.43037 3.07355,-4.60266 43.02378,-56.76198 43.02378,-56.76198 z"
       id="path4790"
       inkscape:connector-curvature="0"
       sodipodi:nodetypes="cscsssccsssscc"
       inkscape:transform-center-x="10.374198"
       inkscape:transform-center-y="61.865208" />
    <path
       style="color:#000000;fill:#241c1c;fill-opacity:1;fill-rule:nonzero;stroke:none;stroke-width:1;marker:none;visibility:visible;display:inline;overflow:visible;enable-background:accumulate"
       d="m 276.30124,695.05798 c 0,0 -4.99703,3.65842 -8.78493,4.77448 l -1.6588,3.31123 -0.56438,2.43707 -2.43687,-0.81438 -4.62876,4.87144 0.81,3.25062 -3.24855,-1.8775 0.55978,3.53168 -1.90541,-1.09522 -0.34454,1.03099 c 6.2142,7.05809 14.51991,14.72993 14.51991,14.72993 12.04925,-6.88976 17.63908,-16.56798 22.6454,-26.48257 l -14.96285,-7.66777 z"
       id="path4845"
       inkscape:connector-curvature="0"
       inkscape:transform-center-x="-17.4977"
       inkscape:transform-center-y="116.95286" />
    <path
       style="color:#000000;fill:#483737;fill-opacity:1;fill-rule:nonzero;stroke:none;stroke-width:1;marker:none;visibility:visible;display:inline;overflow:visible;enable-background:accumulate"
       d="m 415.60186,513.96014 c 0,0 12.97343,-20.06136 23.40879,-24.17628 16.56186,-6.53075 34.53755,-14.96627 53.34132,2.68625 18.80378,17.65253 29.93255,36.84006 38.37506,41.06131 8.44251,4.22126 27.63004,6.90752 41.06131,6.52376 -2.23434,1.23015 -13.56281,2.59562 -20.33878,1.91875 -7.04672,-0.70392 -20.33878,-6.14 -20.33878,-6.14 0,0 10.13768,8.71398 16.11752,11.51251 5.50779,2.57761 17.65253,4.60501 17.65253,4.60501 0,0 -12.28002,-0.38375 -17.65253,-1.535 -5.37251,-1.15125 -16.88502,-5.75626 -16.88502,-5.75626 0,0 11.12876,12.28002 17.65252,14.96627 6.52376,2.68625 9.59377,4.60501 1.91876,3.07001 -7.67502,-1.53501 -18.80378,-7.67502 -18.80378,-7.67502 0,0 8.65465,8.56747 12.28001,13.43127 4.45755,5.98026 11.51252,19.18753 11.51252,19.18753 0,0 -13.81502,-16.11752 -17.65253,-20.33878 -3.8375,-4.22125 -19.57127,-14.58251 -23.02503,-22.64128 -3.45375,-8.05876 -18.80377,-27.24629 -18.80377,-27.24629 0,0 6.52376,9.21001 7.67501,11.89627 1.15125,2.68625 19.95503,26.86254 21.87378,28.78129 1.91875,1.91875 13.81502,18.03627 15.35002,21.87378 1.535,3.83751 9.59377,28.01379 6.14001,21.49003 -3.45375,-6.52376 -16.11752,-30.70004 -26.47879,-35.6888 0,0 9.23351,16.30284 11.12876,25.32753 1.44596,6.88524 10e-6,21.10629 10e-6,21.10629 0,0 -2.0155,-21.62976 -8.82626,-29.16505 -2.23011,-2.46735 -9.21002,-3.8375 -9.21002,-3.8375 0,0 6.90751,10.36126 8.44251,13.81502 1.53501,3.45375 2.30251,14.19877 4.22126,18.80378 1.91875,4.605 1.91875,8.05876 1.91875,8.05876 0,0 -6.14001,-16.11752 -8.05876,-18.42003 -1.91875,-2.3025 -8.05876,-9.59376 -10.74501,-10.74501 l -20.92006,-52.2832 -26.99422,-25.96335 c -20.33878,-9.21002 -39.01886,13.29958 -39.01886,13.29958 z"
       id="path4786"
       inkscape:connector-curvature="0"
       sodipodi:nodetypes="casscscacscsscacsscsssscacacsscsccccc" />
    <path
       style="color:#000000;fill:#241c1c;fill-opacity:1;fill-rule:nonzero;stroke:none;stroke-width:1;marker:none;visibility:visible;display:inline;overflow:visible;enable-background:accumulate"
       d="m 448.71875,505.65625 c -3.20959,0.0806 -6.2659,0.42071 -8.84375,1.03125 -9.39719,2.22566 -18.72006,12.4342 -20.3125,14.25 l 1.46875,2.53125 2.6875,3.25 c 2.10078,-3.19964 13.46592,-18.76249 31.78125,-10.46875 20.33878,9.21001 19.975,17.27874 23.8125,21.5 3.83751,4.22125 3.07625,18.80125 3.84375,23.40625 0.7675,4.60501 8.41208,18.26361 7.65625,16.5 -3.45375,-8.05876 -6.125,-37.59375 -6.125,-37.59375 0,0 5.3575,22.26124 6.125,27.25 0.7675,4.98876 9.22999,22.24498 14.21875,30.6875 4.98876,8.44251 14.9375,11.90625 14.9375,11.90625 0,0 -8.04625,-8.06875 -11.5,-11.90625 -3.45376,-3.83751 -2.31126,-8.43251 0.375,-7.28125 2.35253,1.00823 7.22358,6.54843 9.71875,9.5 -0.67785,-2.40238 -1.63749,-5.24295 -2.71875,-7 -2.17082,-3.52758 -8.67448,-13.02034 -10.03125,-18.71875 -1.35676,-5.69841 -9.25,-25.21875 -9.25,-25.21875 0,0 11.93961,25.512 16.28125,30.125 0.39959,0.42457 0.73096,0.71379 1.0625,1.03125 -0.39853,-0.60519 -0.84375,-1.25 -0.84375,-1.25 0,0 6.98864,1.3764 9.21875,3.84375 4.82895,5.34266 7.22023,17.65719 8.21875,24.4375 0.31441,0.9128 0.8125,2.3125 0.8125,2.3125 0,0 -0.91016,-16.49246 -4.625,-23.59375 -2.04534,-3.90988 -6.50523,-7.32918 -9.21875,-9.5 -2.71353,-2.17082 -20.87867,-28.78391 -24.40625,-38.28125 -3.52758,-9.49734 -17.65991,-24.41982 -21.1875,-28.21875 -2.64569,-2.8492 -13.52747,-4.77292 -23.15625,-4.53125 z"
       id="path4835"
       inkscape:connector-curvature="0"
       sodipodi:nodetypes="sscccsssscsscsscsscsccsccassss" />
    <path
       style="color:#000000;fill:#745b4b;fill-opacity:1;fill-rule:nonzero;stroke:none;stroke-width:1;marker:none;visibility:visible;display:inline;overflow:visible;enable-background:accumulate"
       d="m 238.69285,512.80889 -10.74502,10.36127 4.22126,1.91875 -4.22126,3.83751 3.07001,0 c 0,0 -3.83751,23.40878 -5.37251,29.54879 -1.535,6.14001 6.52376,42.21256 10.74502,44.89881 4.22125,2.68626 41.75858,14.63647 76.29613,7.34521 34.53755,-7.29126 66.33996,-25.30619 66.33996,-25.30619 l 43.6071,5.12417 c 1.15125,-3.07001 15.22585,-10.57197 15.22585,-31.2945 0,-20.72253 -8.44251,-45.28257 -28.01379,-51.03882 -19.57128,-5.75626 -28.78129,-7.67502 -38.75881,-1.91876 -9.97751,5.75626 -27.24629,13.43127 -37.2238,13.43127 -9.97752,0 -34.1538,-9.21001 -38.37506,-11.12876 -4.22125,-1.91876 -9.97751,-11.12877 -9.97751,-11.12877 l -0.38375,6.90751 z"
       id="path4784"
       inkscape:connector-curvature="0"
       sodipodi:nodetypes="cccccsssccsssssccc" />
    <path
       style="color:#000000;fill:#ddbc93;fill-opacity:1;fill-rule:nonzero;stroke:none;stroke-width:1;marker:none;visibility:visible;display:inline;overflow:visible;enable-background:accumulate"
       d="m 167.45185,331.47138 c 0,0 -7.28796,3.14383 -10.54419,6.94277 -3.25623,3.79893 -16.02909,8.45848 -15.26159,11.14473 0,0 4.88435,4.88435 3.79894,7.05517 -1.08541,2.17082 -8.14058,16.82387 -8.14058,16.82387 l 5.42705,-0.54271 -1.08541,7.05517 0.54271,5.96976 -4.34165,8.68328 4.34165,2.17082 30.93419,-7.05517 4.88435,-1.08541 c 0,0 10.3114,14.11034 10.3114,18.45198 0,4.34164 -1.62811,11.93952 -1.62811,11.93952 0,0 -6.51247,-2.17082 -9.7687,3.25623 -3.25623,5.42705 -2.17082,17.90927 0,22.25091 2.17082,4.34164 5.42705,10.3114 5.42705,10.3114 l -1.08541,32.01961 -11.39681,2.71353 c 0,0 1.62812,-8.14058 -0.5427,-8.68329 -2.17082,-0.5427 -5.96976,-1.08541 -5.96976,-1.08541 0,0 -10.3114,-6.51246 -13.02493,-6.51246 -2.71352,0 -9.76869,-1.08541 -11.93951,-0.5427 -2.17082,0.5427 -2.71353,6.51246 -2.71353,6.51246 0,0 -2.44217,4.34164 -2.8492,6.78381 -0.20608,1.23654 -0.0507,3.69591 -0.43253,6.14379 -0.53527,3.4313 -1.60261,6.97093 -1.60261,8.2379 0,2.17082 4.38345,4.5892 6.96205,5.74497 4.9551,2.22095 13.01929,1.2801 14.93804,-0.35084 l 1.97611,-3.00133 7.6007,-0.22198 c 10.94338,-1.58819 23.0529,4.6951 31.84758,-11.39681 0.54271,-2.71352 4.51367,-22.79362 4.51367,-22.79362 0,0 13.56763,16.28116 14.65304,19.53739 1.08541,3.25623 11.93952,10.3114 11.93952,10.3114 l 9.22599,13.56763 1.62811,28.76338 c 0,0 9.7687,-12.48222 13.02493,-14.11033 3.25623,-1.62812 6.51246,-7.05517 6.51246,-7.05517 l 1.62812,5.42705 6.51246,-9.76869 4.88435,1.08541 2.71352,-3.79894 7.59788,5.42705 9.76869,-11.93951 c 0,0 -6.51246,-5.96976 -10.3114,-10.3114 -3.79893,-4.34165 -6.51246,-11.39681 -7.05517,-14.65305 -0.5427,-3.25623 -1.62811,-33.10502 -1.08541,-36.36125 0.54271,-3.25623 -2.71352,-14.65304 -2.71352,-14.65304 0,0 11.2514,1.7044 18.30657,2.78981 7.05517,1.08541 19.6828,3.72265 19.6828,3.72265 0,0 4.36547,19.05218 4.88434,28.76338 0.34294,6.41856 -1.09106,14.61447 -1.18417,19.24676 -0.0636,3.16384 -3.21766,3.32207 -6.47389,6.5783 -3.25623,3.25623 -4.28145,10.53619 -4.28145,10.53619 0,0 -1.62812,6.89841 -1.62812,9.06923 0,2.17082 4.613,3.71462 4.613,3.71462 l -0.94974,6.4611 c -0.5427,2.44218 3.51569,3.80813 7.72165,2.99407 2.38283,-0.46119 4.59819,1.11575 6.44003,1.22109 2.17479,0.12437 6.44003,-0.52163 6.44003,-0.52163 0,0 3.65137,2.29732 4.73678,-0.41621 0,0 4.91733,-18.99468 4.37462,-23.87903 -0.5427,-4.88435 -7.41085,-11.7525 -7.41085,-11.7525 0,0 9.85303,-41.70397 9.85303,-49.30184 0,-7.59787 4.34164,-14.9244 -7.05517,-16.28116 -7.0057,-0.83401 -46.12995,-14.11033 -49.92888,-14.11033 -3.79894,0 -12.48222,-7.59788 -20.6228,-9.22599 -8.14058,-1.62812 -13.56763,1.08541 -20.0801,3.79893 -6.51246,2.71353 -11.93951,2.17082 -15.73845,1.08541 -3.79894,-1.08541 -19.53739,-17.36656 -22.25091,-24.42173 -2.71353,-7.05517 7.18684,-22.3826 7.18684,-27.26694 0,-4.88435 -12.07119,-16.69219 -16.95554,-17.7776 -4.88435,-1.08541 -19.78146,-3.43446 -19.78146,-3.43446 z"
       id="path4709"
       inkscape:connector-curvature="0"
       sodipodi:nodetypes="cscsccccccccscsscccscsscsssscccccscccscccccccssscscasscsccssccscsssssssssc" />
    <path
       id="path4900"
       style="color:#000000;fill:#8e4d2e;fill-opacity:1;fill-rule:nonzero;stroke:none;stroke-width:1;marker:none;visibility:visible;display:inline;overflow:visible;enable-background:accumulate"
       d="m 333.21875,427.625 -4.34375,2.5 -0.5625,1.53125 c 0,0 1.90625,1.1525 1.90625,2.6875 0,1.29372 -5.48758,39.09827 -7.31116,51.02681 -0.3401,2.22474 -1.20754,2.37078 -1.17738,2.49143 0.143,0.57203 2.85051,3.52832 4.48854,4.32551 -1.45096,-1.85415 -2.78125,-3.15625 -2.78125,-3.15625 0,0 9.25,-42.33963 9.25,-49.9375 0,-4.247 1.32517,-8.38655 0.53125,-11.46875 z M 330.25,500.28125 c -1.15097,1.08424 -2.49724,2.59068 -2.15625,3.5 0.57563,1.53501 -2.4825,19.77688 -3.25,19.96875 -0.7675,0.19188 -4.78125,-0.1875 -4.78125,-0.1875 0,0 -4.22375,0.94187 -5.375,0.75 -1.15125,-0.19188 -4.21875,-1.90625 -4.21875,-1.90625 l -8.0625,0 -1.75,-2.28125 -0.125,0.78125 c -0.5427,2.44218 4.60654,4.75156 8.8125,3.9375 2.38283,-0.46119 4.12691,1.11341 5.96875,1.21875 2.17479,0.12437 5.96875,-0.65625 5.96875,-0.65625 0,0 4.75834,1.33853 5.84375,-1.375 0,0 3.6028,-18.6975 3.125,-23.75 z m -26.3125,1.40625 c 0,0 -2.12051,6.42552 -2.88801,7.3849 -0.54763,0.68453 -2.33198,1.75435 -4.11199,2.14635 0.57533,2.00289 4.53125,3.875 4.53125,3.875 l -0.1875,1.125 c 0.34098,-4.91757 1.44185,-9.61242 2.65625,-14.53125 z M 198.09375,389.71875 201.0625,418.75 203.5,423.625 c 0,0 -3.52814,1.08385 -5.15625,0.8125 -1.62812,-0.27135 -2.14323,-3.78125 -3.5,-3.78125 -1.35676,0 0.25678,3.78803 2.15625,5.6875 1.89946,1.89947 5.70574,1.09531 7.0625,0.28125 1.35677,-0.81406 -0.8125,-8.6875 -0.8125,-8.6875 z M 232,407.625 l -22.65625,16 -0.40625,3.28125 L 209.625,425 z m 34.875,16.40625 -16.5625,2.3125 0.8125,0.34375 -1.625,-0.34375 2.78125,0.84375 3.09375,1.34375 c 0.10924,1.06799 0.71455,7.28725 -0.15625,8.53125 -0.94973,1.35676 -4.48698,15.34219 -5.84375,16.15625 -1.35676,0.81405 -12.20263,3.6448 -15.1875,4.1875 -2.98488,0.54271 -15.07996,-2.84064 -16.84375,-4.46875 -1.7638,-1.62812 -8.36908,-13.75881 -8.6875,-14.21875 -0.92995,-1.34327 -6.09297,-6.64479 -6.5,-7.1875 -0.40702,-0.5427 -6.5,-1.53125 -6.5,-1.53125 0,0 3.9107,2.44272 7.03125,5.15625 3.12056,2.71352 11.68672,18.3323 12.09375,18.875 0.40703,0.54271 -1.36121,7.87344 -3.125,8.6875 -1.76379,0.81406 -16.28881,3.39635 -17.78125,3.125 l -2.09375,-2.78125 c -3.23863,-5.31436 -8.75,-16.5 -8.75,-16.5 l -0.40625,5.71875 1.34375,-3.53125 c 0,0 5.58308,10.72709 5.71875,11.8125 0.0406,0.32446 0.52379,1.04195 1.15625,1.875 0.90124,2.24094 2.5146,6.55284 2.375,8.4375 -0.19188,2.59032 -0.29499,10.95406 -1.0625,12.96875 -0.7675,2.01469 -5.1875,6.03125 -5.1875,6.03125 0,0 0.48906,2.40969 0.96875,5 0.47969,2.59032 -9.38219,3.625 -10.4375,3.625 -1.05532,0 -10,-2.375 -10,-2.375 l 0.1875,4.21875 c 0,0 -3.63656,-0.19031 -4.5,-1.4375 -0.86344,-1.24719 -3.0625,-5 -3.0625,-5 l 1.15625,-7.78125 1.8125,-4.78125 -4.6875,-2.96875 c 0,0 -0.98468,4.69687 -1.65625,5.65625 -0.67156,0.95938 -11.875,-1.4375 -11.875,-1.4375 0,0 11.49781,3.07187 11.59375,4.03125 0.0959,0.95937 -0.007,6.62062 -1.0625,6.8125 -1.05532,0.19187 -15.34375,-2.3125 -15.34375,-2.3125 0,0 14.02906,3.28844 14.125,4.34375 0.0959,1.05532 -1.39961,5.00933 -2.03125,4.78125 -2.92255,-1.05531 -9.59299,-0.99799 -12.3125,-1.5625 2.71801,0.57542 9.76638,1.936 9.4375,2.59375 -0.47969,0.95938 -0.49187,5.01594 -2.21875,5.6875 -1.27876,0.4973 -5.10734,-0.61572 -9.125,-0.71875 5.02832,2.14503 13.72843,1.95584 15.625,0.34375 l 1.96875,-3 6.75,-1 c 0,0 3.80004,5.44273 10.3125,8.15625 6.51246,2.71353 16.25834,5.94685 17.34375,1.0625 1.08541,-4.88434 4.0823,-17.88022 4.625,-20.59375 0.54112,-2.70559 4.04199,-22.63328 4.0625,-22.75 l -2.59375,-1.34375 c 3.02354,-0.29213 17.53717,-2.68886 19.15625,-3.0625 1.76379,-0.40703 1.62344,-5.6935 2.4375,-8 0.81405,-2.3065 1.48776,-1.61511 2.4375,-1.34375 0.94973,0.27135 13.42448,3.78125 14.78125,3.78125 1.35676,0 13.4336,-2.01901 15.46875,-2.96875 2.03514,-0.94973 3.41614,-4.47475 3.6875,-6.78125 0.27135,-2.3065 4.47632,-16.0099 5.96875,-16.28125 1.49244,-0.27135 4.05782,2.16459 6.5,3.25 0.96501,0.4289 2.06877,1.28178 3.0625,2.15625 -0.44111,-2.12839 -0.8986,-3.95776 -1.28125,-5.40625 -0.26304,-0.99573 -0.52019,-1.92667 -0.59375,-2.1875 -0.0138,-0.0512 -0.0937,-0.40625 -0.0937,-0.40625 0,0 13.00733,3.25834 20.0625,4.34375 7.05517,1.08541 17.90625,2.1875 17.90625,2.1875 0,0 0.0601,0.17926 0.0625,0.1875 l 2.53125,-2.65625 c 0,0 -4.9008,-0.11511 -7.75,0.15625 -2.84921,0.27135 -38.25,-7.46719 -38.25,-8.28125 0,-0.81406 4.75,-1.78125 4.75,-1.78125 z m -44.5,42.75 c 0,0 -0.94584,10.30783 -2.03125,12.75 -1.08541,2.44217 2.02214,13.71797 1.34375,14.125 -0.36267,0.2176 -1.20442,0.49115 -1.96875,0.71875 2.28055,1.73345 4.09091,2.9389 4.84375,3.4375 -0.54645,-1.62058 -2.13407,-6.61693 -1.90625,-8.78125 0.27135,-2.57785 2.28203,-14.77814 1.875,-16.40625 -0.40703,-1.62812 -2.15625,-5.84375 -2.15625,-5.84375 z M 198.71875,468.5 c 0.005,0.006 0.14071,0.20007 0.15625,0.21875 l 0,-0.125 -0.15625,-0.0937 z m 32.0625,1.9375 c 0,0 0.008,2.03047 1.09375,2.4375 1.08541,0.40703 9.49533,0.97865 11.9375,1.25 2.44218,0.27135 14.91381,4.05105 16.40625,4.59375 1.49244,0.54271 5.71875,4.75 5.71875,4.75 0,0 -2.85287,-4.06173 -3.53125,-4.46875 -0.67838,-0.40703 -14.53803,-6.12422 -16.4375,-6.53125 -1.89946,-0.40703 -15.1875,-2.03125 -15.1875,-2.03125 z m -0.40625,7.875 c 0,0 3.125,6.37344 3.125,7.1875 0,0.81406 1.35599,2.17527 0.40625,3.125 -0.94973,0.94974 -5.84375,4.75 -5.84375,4.75 0,0 6.66459,-4.875 7.75,-4.875 1.08541,0 3.66615,2.01823 3.9375,3.375 0.27136,1.35676 2.96875,7.19506 2.96875,8.6875 0,1.49244 -5,3.9375 -5,3.9375 0,0 5.41537,-2.4276 6.09375,-2.15625 0.67839,0.27135 2.84375,7.98776 2.84375,8.9375 0,0.94973 -1.09375,13.3125 -1.09375,13.3125 0,0 2.03125,-8.01668 2.03125,-10.1875 0,-2.17082 -2.03125,-11.65625 -2.03125,-11.65625 0,0 5.97553,-1.92683 7.875,-2.0625 1.89947,-0.13568 10.71875,-0.40625 10.71875,-0.40625 0,0 -3.24533,-0.53125 -5.6875,-0.53125 -2.44218,0 1.90625,-1.75 1.90625,-1.75 0,0 -11.27813,2.5625 -12.90625,2.5625 -1.62811,0 -2.85365,0.39713 -3.125,-0.28125 -0.27135,-0.67838 -4.61433,-10.56095 -4.75,-11.375 -0.13568,-0.81406 0.55938,-2.30104 2.1875,-2.84375 1.62811,-0.5427 4.75,-1.65625 4.75,-1.65625 0,0 -7.31928,2.32318 -9.21875,2.1875 -1.89947,-0.13568 -6.9375,-8.28125 -6.9375,-8.28125 z M 184.7759,365.06493 c 0,0 0,-2.87813 2.11062,-4.60501 2.11063,-1.72688 10.93689,-9.01814 11.32065,-7.48314 0.38375,1.535 -4.22126,3.26188 -4.22126,4.02938 0,0.7675 2.87813,0.7675 2.49438,1.72688 -0.38375,0.95938 -4.41313,0.95938 -6.14001,1.72688 -1.72688,0.7675 -4.41313,3.07 -3.64563,4.98876 0.7675,1.91875 -2.11063,7.09938 -2.11063,7.09938 z m -27.24465,-17.65868 c 0,0 -10.73687,1.71938 -11.3125,3.0625 -0.57562,1.34313 0.75,6.15625 0.75,6.15625 0,0 -0.15948,0.49192 0.91459,0.91693 l 11.36666,16.92682 -8.4375,-16.3125 c 0.31394,0.12824 2.37384,0.68645 2.59687,0.78203 1.34312,0.57562 11.21563,-2.12578 11.21563,-2.12578 0,0 -5.74125,-0.18813 -6.125,-1.53125 -0.38375,-1.34313 -0.96875,-7.875 -0.96875,-7.875 z m 37.03125,24.8125 c 0,0 -3.34703,7.51548 -7.0625,4.46875 -0.99529,-0.81615 -4.875,2.3125 -4.875,2.3125 0,0 -3.68074,3.66542 -3.8125,4.46875 -0.47969,2.92469 -12.1935,6.65547 -14.5,7.0625 -2.30649,0.40703 -16.84375,3.40625 -16.84375,3.40625 l 0.59375,1.5 25.0625,-5.71875 L 178,388.625 c 0,0 1.61749,2.2276 3.5625,5.15625 0.14962,-0.93848 0.30883,-2.43423 0.375,-4.75 0.13567,-4.74867 -1.03359,-7.30386 -0.62656,-7.84656 0.40703,-0.54271 2.52969,-2.86307 4.15781,-2.18469 1.62812,0.67838 3.35598,0.77041 4.83937,0.135 2.63369,-1.12814 5.75438,-6.385 5.75438,-6.385 z m -2.11159,-20.36994 c -1.76379,0.67838 -8.25064,5.92485 -9.21002,7.45986 -0.95937,1.535 -2.11062,2.68625 -2.11062,2.68625 l 2.11062,-4.79688 10.74502,-8.25064 z"
       inkscape:connector-curvature="0"
       sodipodi:nodetypes="cccsssccsccsccsccccssccccscccccccsssscccccccccccccsssssscssscccccccsscssccsccccscccccscssccccsssccsssssssscsccscccsscccssccssccccccccsscssccsscssscsscscscscsssscsccsssssscccsccccccsccscsscccccsssscccscccc" />
    <path
       style="color:#000000;fill:#483737;fill-opacity:1;fill-rule:nonzero;stroke:none;stroke-width:1;marker:none;visibility:visible;display:inline;overflow:visible;enable-background:accumulate"
       d="m 159.25648,336.66738 c 0,0 4.60501,-6.90751 7.29126,-6.52376 2.68626,0.38375 9.97752,0.38375 9.97752,0.38375 0,0 5.37251,-2.3025 7.29126,-2.3025 1.91875,0 9.21001,0.38375 11.89627,1.535 2.68625,1.15126 9.59376,1.15126 9.59376,1.15126 l -11.89627,3.45375 c 0,0 17.53769,-1.77856 26.27328,-1.06213 4.88675,0.40077 14.40428,2.98088 14.40428,2.98088 l -14.58252,2.30251 c 9.22044,0.87195 18.29955,2.06192 26.09504,6.14001 0,0 -7.7914,-0.83734 -11.6289,-1.22109 -3.83751,-0.38375 -7.94238,1.60484 -7.94238,1.60484 l 8.05876,3.8375 c -0.33071,-0.463 -16.9357,-0.94024 -19.52871,-0.47687 -3.95919,0.70752 -7.33383,3.93063 -7.33383,5.46563 0,1.535 11.89627,3.8375 11.89627,3.8375 l -5.75626,0.76751 10.74502,5.3725 c 0,0 -9.69677,-0.94477 -13.81502,1.15126 -3.31388,1.68663 -8.82626,8.05876 -7.29126,8.44251 1.535,0.38375 9.97751,-0.38375 9.97751,-0.38375 l -6.52376,3.07 3.07001,2.30251 c 0,0 -3.83751,0 -5.37251,2.3025 -1.535,2.3025 0.36047,9.38825 2.66297,9.38825 2.30251,0 14.6058,2.12427 14.6058,2.12427 0,0 -5.53648,0.74519 -6.90751,1.535 -4.01645,2.31376 7.56401,3.83857 8.05877,3.45375 l -10.36127,1.535 -3.8375,-0.7675 -7.67502,-11.51251 -4.22125,-4.98876 -0.31791,-3.94991 -2.65616,-3.53322 c 0,0 8.34658,-18.22816 8.34658,-20.53066 0,-2.3025 1.25536,-6.33177 -4.98876,-3.07001 -1.88927,0.9869 -3.14032,1.5825 -6.04421,2.56502 -3.23174,-3.45897 -9.36174,-9.57724 -7.77081,-9.85628 l 5.75626,-1.535 c -2.26587,-2.05758 -3.88401,-5.51165 -8.05877,-3.45375 0,0 -1.74052,-2.54659 -0.79078,-3.76767 -5.12629,-0.52195 -5.27798,0.22941 -6.50048,1.08141 0,0 -1.87619,-4.71741 -4.56244,-3.1824 -2.68625,1.535 -9.63633,4.33365 -9.63633,4.33365 z"
       id="path4711"
       inkscape:connector-curvature="0"
       sodipodi:nodetypes="cscssccacccsccsscccascccsscscccccccssccccccsc" />
    <path
       style="color:#000000;fill:#483737;fill-opacity:1;fill-rule:nonzero;stroke:none;stroke-width:1;marker:none;visibility:visible;display:inline;overflow:visible;enable-background:accumulate"
       d="m 143.52271,348.56365 3.07,3.83751 13.81503,-4.60501 c 0,0 -1.15126,-3.83751 -2.68626,-3.07 -1.535,0.7675 -14.19877,3.8375 -14.19877,3.8375 z"
       id="path4713"
       inkscape:connector-curvature="0" />
    <path
       style="color:#000000;fill:#483737;fill-opacity:1;fill-rule:nonzero;stroke:none;stroke-width:1;marker:none;visibility:visible;display:inline;overflow:visible;enable-background:accumulate"
       d="m 140.83201,388.36232 c -1.3875,0.61667 6.01482,4.89446 8.27626,4.47731 0.56607,-0.10442 4.20596,2.17082 0.27135,2.98488 0,0 -4.37934,0.98229 -6.10543,2.3065 -2.82812,2.16965 -5.42706,6.64814 -6.24112,8.68328 -0.75751,1.89378 -1.89946,5.56273 -1.89946,5.56273 0,0 -4.47732,1.35676 -4.74868,-1.35676 -0.27135,-2.71353 0.54574,-11.69242 3.39191,-16.55251 1.57164,-2.68372 7.05517,-6.10543 7.05517,-6.10543 z"
       id="path4715"
       inkscape:connector-curvature="0"
       sodipodi:nodetypes="cscascsac" />
    <path
       style="color:#000000;fill:#000000;fill-opacity:1;fill-rule:nonzero;stroke:none;stroke-width:1;marker:none;visibility:visible;display:inline;overflow:visible;enable-background:accumulate"
       d="m 150.43022,354.51178 1.535,2.68626 14.7744,-0.57563 c 0,0 -7.29126,-0.38375 -8.82626,-0.7675 -1.53501,-0.38375 -3.26188,-3.64563 -3.26188,-3.64563 z"
       id="path4717"
       inkscape:connector-curvature="0" />
    <path
       style="color:#000000;fill:#cf8451;fill-opacity:1;fill-rule:nonzero;stroke:none;stroke-width:1;marker:none;visibility:visible;display:inline;overflow:visible;enable-background:accumulate"
       d="m 176.33338,364.29742 c -4.34417,0.13769 -10.93689,7.09939 -10.93689,7.09939 0,0 -0.7675,2.3025 -3.8375,5.75626 -3.07001,3.45375 -7.86689,6.52376 -7.86689,6.52376 0,0 -3.26188,0.7675 -1.535,1.535 1.72688,0.7675 14.96627,-3.45376 19.95503,-7.67501 4.98875,-4.22126 8.82626,-9.97752 7.29126,-11.51252 -1.535,-1.535 -1.89648,-1.76408 -3.07001,-1.72688 z"
       id="path4727"
       inkscape:connector-curvature="0"
       sodipodi:nodetypes="scscssss" />
    <path
       style="color:#000000;fill:#2c5aa0;fill-opacity:1;fill-rule:nonzero;stroke:none;stroke-width:1;marker:none;visibility:visible;display:inline;overflow:visible;enable-background:accumulate"
       d="m 169.125,359.6875 c -1.12191,0.0649 -1.18926,1.51479 -0.40215,2.08654 1.83361,2.61291 3.24598,5.50708 4.40215,8.47596 0.0174,0.76421 0.7168,1.4858 1.59052,1.38463 0.99667,0.0271 1.75324,-1.05096 1.39458,-1.98231 -0.77133,-2.11624 -1.9368,-4.06219 -3.00938,-6.03591 -0.72182,-1.17026 -1.29712,-2.49339 -2.35181,-3.41132 -0.45647,-0.35473 -1.03963,-0.58263 -1.62391,-0.51759 z m -4.59375,1.9375 c -1.12893,0.0426 -1.18718,1.48774 -0.40293,2.05505 1.68114,2.39491 2.95125,5.05304 4.11064,7.73086 0.3836,0.72982 0.20306,1.69707 1.12701,2.01284 0.86728,0.35592 2.12287,-0.0629 2.21542,-1.10411 0.0503,-1.07409 -0.63745,-1.99729 -1.0297,-2.95299 -1.13066,-2.23983 -2.30715,-4.47081 -3.73815,-6.53537 -0.51585,-0.7232 -1.35917,-1.30406 -2.28229,-1.20628 z m -5,2.46875 c -1.12191,0.0649 -1.18926,1.51479 -0.40215,2.08654 1.83361,2.61291 3.24598,5.50708 4.40215,8.47596 0.0174,0.76421 0.7168,1.4858 1.59052,1.38463 0.99667,0.0271 1.75324,-1.05096 1.39458,-1.98231 -0.77133,-2.11624 -1.9368,-4.06219 -3.00938,-6.03591 -0.72182,-1.17026 -1.29712,-2.49339 -2.35181,-3.41132 -0.45647,-0.35473 -1.03963,-0.58263 -1.62391,-0.51759 z"
       id="path4867"
       inkscape:connector-curvature="0" />
    <path
       style="color:#000000;fill:#332216;fill-opacity:1;fill-rule:nonzero;stroke:none;stroke-width:1;marker:none;visibility:visible;display:inline;overflow:visible;enable-background:accumulate"
       d="m 431.96875,529.78125 c -0.20148,6.62654 -0.52263,18.64121 -0.25,24.09375 0.38375,7.67501 -10.73623,17.2775 -19.5625,18.8125 -8.82626,1.535 -48.74251,-3.46751 -56.03377,-0.3975 -7.29126,3.07 -14.20243,23.4175 -51.80998,28.0225 -8.10936,0.99298 -4.89748,-12.60175 -10.24102,-22.6458 -16.104,-5.66713 -49.63398,8.42705 -49.63398,8.42705 l -5.625,18.4375 c 9.58867,4.04071 42.61824,13.81393 73.5625,7.28125 34.53755,-7.29126 68.6875,-22.625 68.6875,-22.625 l 38,7.65625 c 0,0 3.8175,-2.305 4.96875,-5.375 1.15125,-3.07001 13.84375,-11.49622 13.84375,-32.21875 0,-9.75959 -1.88039,-20.37198 -5.90625,-29.46875 z"
       id="path4911"
       inkscape:connector-curvature="0"
       sodipodi:nodetypes="csssscccsccssc" />
    <path
       style="color:#000000;fill:#493120;fill-opacity:1;fill-rule:nonzero;stroke:none;stroke-width:1;marker:none;visibility:visible;display:inline;overflow:visible;enable-background:accumulate"
       d="m 227.6875,576.875 c 0.7456,3.65615 1.62838,7.4092 2.5625,10.9375 l 19.70098,-17.33332 c -8.01041,-1.83896 -14.25306,16.33181 -22.26348,6.39582 z"
       id="path5784"
       inkscape:connector-curvature="0"
       sodipodi:nodetypes="cccc" />
    <path
       style="color:#000000;fill:#745b4b;fill-opacity:1;fill-rule:nonzero;stroke:none;stroke-width:1;marker:none;visibility:visible;display:inline;overflow:visible;enable-background:accumulate"
       d="m 245.9948,555.69322 c 0,0 -6.38423,22.45262 -8.25239,25.33205 -1.86817,2.87943 -29.2182,16.02555 -33.71299,18.22371 -4.49477,2.19816 -9.4566,5.11619 -9.75651,7.78564 -0.29992,2.66946 0.0301,10.04367 3.75364,14.70983 3.72356,4.66616 16.23127,34.26146 16.81834,39.34756 0.58706,5.0861 6.34755,14.86556 7.64858,17.85059 1.50941,3.46309 34.95064,32.01913 36.96129,28.48103 l -2.64477,-23.74158 c 0,0 -5.87516,-1.46213 -12.35814,-2.1905 -13.24778,-2.58684 -4.65224,-11.02018 -7.57039,-16.64192 -7.50175,-14.17458 -11.22506,-8.33002 -13.24781,-16.56866 l -8.14792,-33.18642 c 0,0 34.263,-11.73362 42.65698,-14.26603 8.39399,-2.53241 27.59009,-0.12337 33.8245,-4.05691 6.23441,-3.93354 25.05313,-40.82189 25.05313,-40.82189 z"
       id="path4788"
       inkscape:connector-curvature="0"
       sodipodi:nodetypes="cssssssccccscsscc"
       inkscape:transform-center-x="6.8369379"
       inkscape:transform-center-y="47.502902" />
    <path
       style="color:#000000;fill:#745b4b;fill-opacity:1;fill-rule:nonzero;stroke:none;stroke-width:1;marker:none;visibility:visible;display:inline;overflow:visible;enable-background:accumulate"
       d="m 368.01679,547.34644 c 0,0 -13.81502,27.24629 -8.05876,45.28257 5.75626,18.03628 46.81757,37.60755 52.57382,37.9913 5.75626,0.38376 8.44252,6.14001 7.67502,9.97752 -0.76751,3.8375 -18.92198,34.40672 -28.0138,51.80633 -7.23267,13.84165 -19.57128,29.54879 -21.10628,41.82881 l 37.22381,-19.57128 c 0,0 -15.31485,-6.83484 -8.05876,-13.43128 4.22126,-3.8375 12.86591,-5.21026 15.35002,-8.05875 3.32598,-3.81386 0.38375,-13.81502 0.38375,-13.81502 0,0 24.56004,-44.89882 28.01379,-50.65508 3.45376,-5.75626 0.38375,-10.74501 -4.98876,-11.89627 -5.3725,-1.15125 -21.9748,-9.85733 -16.15252,-21.74003 5.8375,-11.91377 10.02191,-8.38876 13.85844,-26.25952 3.31213,-15.42809 -4.21703,-40.23743 -6.21703,-41.48743 z"
       id="path4792"
       inkscape:connector-curvature="0"
       sodipodi:nodetypes="csssaccsscsssscc" />
    <path
       style="color:#000000;fill:#493120;fill-opacity:1;fill-rule:nonzero;stroke:none;stroke-width:1;marker:none;visibility:visible;display:inline;overflow:visible;enable-background:accumulate"
       d="m 302.28125,578.25 c 0,0 -9.19486,13.08395 -13.4375,13.4375 -4.24264,0.35356 -69.28493,18.02145 -71.40625,18.375 -2.12132,0.35355 -10.59375,0.71875 -10.59375,0.71875 l 6.6875,4.59375 8.5,33.9375 c 0.70711,2.82842 6.02513,4.60723 8.5,6.375 2.47487,1.76777 4.23836,12.35908 3.53125,15.1875 -0.7071,2.82843 -1.05882,8.85539 1.0625,9.5625 2.12133,0.7071 19.09375,5.65625 19.09375,5.65625 l 7.03125,-12.53125 -4.125,-0.375 c 0,0 -5.54827,8.25962 -12.03125,7.53125 -13.24778,-2.58684 -4.20685,-10.25326 -7.125,-15.875 -7.50175,-14.17458 -10.92218,-8.59789 -12.78125,-16.875 L 218,615.875 c 0,0 31.76227,-11.09259 40.15625,-13.625 8.39399,-2.53241 27.57809,-1.53521 33.8125,-5.46875 2.58249,-1.6294 7.33091,-8.93181 12,-16.90625 l -1.6875,-1.625 z"
       id="path5779"
       inkscape:connector-curvature="0" />
    <path
       style="color:#000000;fill:#241c1c;fill-opacity:1;fill-rule:nonzero;stroke:none;stroke-width:1;marker:none;visibility:visible;display:inline;overflow:visible;enable-background:accumulate"
       d="m 273.19267,674.60936 -16.06605,-1.42768 c 0,0 -3.25836,4.79467 -7.67636,6.74763 l 0.24497,2.85772 -1.95365,0.3151 -0.0555,3.01264 -1.95364,0.3151 -4.07752,7.18342 1.43341,1.79626 -2.54019,0.21776 c 8.87496,7.20626 17.87946,13.59265 18.8935,11.80826 6.4197,-10.73497 12.33973,-21.52854 13.75098,-32.82621 z"
       id="path4840"
       inkscape:connector-curvature="0"
       inkscape:transform-center-x="5.5707637"
       inkscape:transform-center-y="106.25297" />
    <path
       style="color:#000000;fill:#241c1c;fill-opacity:1;fill-rule:nonzero;stroke:none;stroke-width:1;marker:none;visibility:visible;display:inline;overflow:visible;enable-background:accumulate"
       d="m 408.15625,714.59375 -4.65625,0.75 -0.8125,1.625 -2.4375,-1.90625 -11.6875,0.28125 -6.5,2.4375 1.625,-2.4375 -3.53125,1.625 0.5625,-1.625 -2.15625,0.1875 c -3.75329,6.61587 -6.75944,13.01299 -7.46875,18.6875 10.57886,2.12315 22.28132,1.96899 34.90625,0 l 2.3125,-19.5625 c 0,0 -0.13161,-0.0513 -0.15625,-0.0625 z"
       id="path4850"
       inkscape:connector-curvature="0" />
    <path
       style="color:#000000;fill:#493120;fill-opacity:1;fill-rule:nonzero;stroke:none;stroke-width:1;marker:none;visibility:visible;display:inline;overflow:visible;enable-background:accumulate"
       d="m 433.90625,535.84375 c 0.79001,7.86301 1.06286,14.1782 1.09375,21.28125 0.10307,23.70232 -13.75,26.75 -17.25,33.25 -3.5,6.5 -0.75,14 3.25,16.75 1.97039,1.35464 6.5481,6.2128 10.6875,6.5 -6.24859,-3.74778 -12.83886,-10.40887 -8.84375,-18.5625 5.8375,-11.91377 10.03847,-8.37924 13.875,-26.25 2.15856,-10.05469 -0.29319,-24.06309 -2.8125,-32.96875 z m 11.25,89.09375 c -1.28125,0.125 -2.78125,0.5625 -3.65625,1.6875 -1.75,2.25 -23.75,43.75 -25.5,47 -1.54148,2.86274 1.00824,8.82828 0.4375,16.53125 -1.31249,0.0983 -2.69395,0.42391 -3.6875,1.21875 -2.5,2 -15.75,5.5 -16.75,9.25 -0.34697,1.30113 0.76216,3.07033 2.34375,4.84375 -0.15448,-1.37366 0.3416,-2.82759 1.90625,-4.25 4.22126,-3.8375 12.85964,-5.21401 15.34375,-8.0625 3.32598,-3.81386 0.40625,-13.8125 0.40625,-13.8125 0,0 24.54625,-44.89999 28,-50.65625 0.78236,-1.30394 1.21309,-2.56051 1.375,-3.75 -0.0752,0.005 -0.1418,-0.008 -0.21875,0 z"
       id="path5789"
       inkscape:connector-curvature="0"
       sodipodi:nodetypes="cssscssccsscsscsscscc" />
    <path
       style="color:#000000;fill:#666666;fill-opacity:1;fill-rule:nonzero;stroke:none;stroke-width:1;marker:none;visibility:visible;display:inline;overflow:visible;enable-background:accumulate"
       d="m 378.86925,717.49851 c -2.67397,5.96558 -5.36185,12.49002 -6.20733,17.07019 l 2.54944,0.33253 c 0.44737,-4.80462 2.03582,-10.54384 5.54227,-16.95933 z"
       id="path5794"
       inkscape:connector-curvature="0"
       sodipodi:nodetypes="ccccc" />
  </g>
</svg>
