<?xml version="1.0" encoding="UTF-8" standalone="no"?>
<svg viewBox="0 0 724.29254 821.61566" xmlns="http://www.w3.org/2000/svg">
<g transform="translate(260.94128,-1281.27531)">
<path d="m169.4375,1281.2812c-9.50133.1235-18.9342,2.1651-26.9375,6.5626-10.1416,5.572-17.12538,16.8443-20.71875,27.8437-4.69514,14.3721-7.05467,32.5429.375,45.375 17.07774,29.4956 11.39958,42.1731 26.53125,48 11.33725,4.3657 15.87754,22.1654 3.625,28.0625-18.1448,6.7672-34.32079,12.9938-47.16472,22.9282-2.06658,1.5985-4.60006-.3386-11.13885,2.6432-41.9963,19.1507-46.89033,48.175-64.97768,69.2724-8.37488,3.5384-6.16511,10.4936-16.1762,14.3027-4.55012,1.7313-20.25902,1.6355-25.51792,2.0494-30.28348,2.3837-73.61983,17.2474-136.10499,7.9336-3.6459-.5118-8.16148,5.3387-9.34375,5.625-5.51352,1.3343-5.76816.1201-7.84375-2.8438-13.36107-14.9192-37.69684-14.1-54.34375-18.875-4.19276-1.2027-7.0676-1.6381-9.1875-1.625-4.66378.029-5.71922,2.2403-9.4375,3.3125-9.91847,2.86-17.76346,19.556-12.84375,19.6875 11.05083.2952 9.76296-2.6789 19.9375-.4688 4.12316.896 16.3303,12.39 26.125,13.9063-3.71711,2.277-2.54181,2.8415-6.78125,5.3125-3.91028-2.1019-16.97659.6373-19.78125,7.3125 3.0771,3.912 13.17242,3.6259 20.25,6.2187 12.54358,4.5955 25.3675.4822 30.78125-6.875 5.0094,1.7685 10.3178-3.5226 15.4375-2.1562 3.17045.8461 5.86072,5.729 9.0625,6.5312 36.86355,9.2389 76.13055,11.8408 112.5,22.9688 18.35567,5.6163 75.18558,8.2836 85.29911,4.2143l22.9375-15.9375c25.83828-19.8079 33.37823-30.5147 37.46875-39.0313 4.55859,10.0855 6.16739,23.5149 6.21875,37.5313-5.90689,2.3676-24.00753,8.1127-38.50256,14.9088-3.31227,1.553-2.44841,4.9702-5.3011,6.0959-4.66283,1.8399-9.62497,3.3519-10.81977,4.2741-28.56012-5.8659-30.4328-4.4844-50.5506,19.6039 10.09623,18.4503 9.71299,19.1284 9.93322,24.3207 12.33147,7.2289 32.18458-1.3529 48.26095-16.3648-.05976-.06 4.94109-.7353 11.56833-1.652 2.56986-.3554 2.10128,2.7883 4.96001,2.3822 10.47056-1.4877 24.56602-6.4521 26.3865-7.2542-2.23321,15.6959-4.14069,26.6225-2.90371,26.6225l13.5625,10.7188-3.71875,4.3124-18.84375,10.5313c-26.78588,8.7203-88.43836,31.0361-129.5625,63.7187-14.76439,11.7339-59.44789,26.0827-69.3125,42.1563-21.23355,34.5982-25.63343,72.7519-40,110.7187-18.36735,35.9457 12.21333,46.9651 2.15625,96.4063l-20.71875,34.625c0,0-21.24733,25.2021-92.125,40-5.63721,1.1769-2.91501,15 2.84375,15h137.84375c12.14052,0 17.4161-20.8224 15.71875-32.8437-10.54531-4.1277-16.93419-7.4753-22.125-16.4376l7.84375-38.1874c27.03495-5.0276 26.77689-28.4672 45.71875-45.7184 33.06055-30.1098 17.56929-56.5004 35-100.7188 6.33554-3.3351 7.21295,2.2231 9.84375.9688 3.52488-1.6806 5.31142-12.6687 8.53125-13.0625 59.54922-7.2823 115.63198-31.4591 164.625-51.8437 9.29882-3.8691 21.2098.5436 31.28125-.3438 42.08854-.3103 67.55124,51.3111 109.28125,53.5625 37.60609,2.029 9.01239,1.4029 15.71875,21.4375 8.90787-2.2857 26.56545-7.6278 16.0625,18.5625-10.49942,26.1815-12.67789,39.64-9.625,84.3125 .56701,8.297 14.20131,20.3858 15.71875,28.5625 1.91352,10.3109 2.40559,1.3702-3.59375,28.9423-.72791,3.3454-5.21562,13.1727-20.53204,21.539-2.02375,6.4758-4.36858,9.954-8.85074,24.0961 18.40098,26.8144 103.58639,14.8301 158.69528,17.1726 7.45024-8.2882 16.64844-13.9103 7.125-20.3125-31.13176-5.0989-96.22059-8.8436-94.14531-46.3491 0,0 4.23036-17.8171 6.30156-23.6509 6.56906-18.5022 35.88732-48.9799 35-68.5938-2.26685-50.1075 13.74139-80.5408 2.84375-127.8437-2.28785-9.9308-11.22485-17.2092-18.5625-24.2813-37.38654-36.0331-105.36071-58.631-129.21875-104.75-6.12635-11.8422-10.53493-9.9765-7.15625-22.875 4.43031-16.9126 9.38837,2.131 14.78125-14.5 11.39717-35.1468 57.69253-106.9307 58.28125-148.75 .31599-22.4455-3.58974-34.1714-16.4375-53.0624-15.24595-15.1769-35.94797-11.2635-54.8125-16.0938-7.9896-2.0458-13.20205-5.5692-21.875-9.375-3.98559-2.9429-1.72174-15.1429-2.84375-19.9688-1.20116-5.1658 2.35735-10.4167 2.5-15.7187 .37021-13.7599-1.161-27.6874-4.28125-41.0937-3.50913-15.0774-6.89194-31.1138-16.09375-43.5626-5.6047-7.5821-13.46175-14.4391-22.5-17.125-6.80823-2.0227-14.23508-3.0957-21.625-3z"/>
<path d="m-163.56696,1289.7097 154.28571,324.2858 14.28571,5.7142 25.71429,52.8572c1.66654,3.4257-1.61583,7.9787 0,11.4286 1.5775,3.368 4.85934,6.9135 8.57143,7.1428 7.91031.4887 15.28749-.5362 19.37105-7.3285 2.95449-4.9144 1.4466-11.6563-2.04137-16.2076-3.2385-4.2257-10.4629-3.1674-12.50825-8.9639l-180.5357-364.6428-27.14286-4.2858z"/>
<path d="m217.8995,1339.3954c-36.31166-14.301-61.1344,11.0205-65.14764,11.9732-4.33531,1.0291-7.72342-8.9417-3.70643-21.7452 3.94346-12.5691 64.39994-26.7447 69.71874-6.1603 3.12622,12.0989 6.55999,18.8564-.86467,15.9323z" fill="#fff"/>
<path d="m184.65757,1573.7418c-2.09362-.5428-.2152,5.4764-2.4627,5.9123-30.47794,5.9108-48.02648,12.271-74.88237,21.6934-.0464.9848-.10241,1.9839-.15625,2.9687 26.0368-11.8992 50.29421-11.7699 77.40415-21.3866 1.79659-.6373.83839-5.2885 2.49449-4.9199 .36705-2.0017 3.44756,1.4119 4.06833-.678 7.13512-24.0211 32.33187-73.9076 55.55013-91.9675-26.06873,11.5917-50.92002,64.666-57.53374,88.7374-.61061,2.2224-4.44895-2.4594-4.48204-.3598zm135.08735-50.4675c-23.4151,29.2813-72.04549,87.8859-96.57377,106.905-21.86332,6.518-84.28937,12.8449-119.85865,15.2307-.11398.9458-.20094,1.7127-.3125,2.625 34.31556-3.3101 97.15628-4.0135 122.10865-12.0592 32.70239-23.4539 72.99292-81.5499 94.63627-112.7015z" fill="#fff"/>
<path d="m2.14286,1647.5757c-9.07847,1.3438-24.98094,3.5611-27.14286-7.1428-4.92739-24.3961 52.68553-57.3884 70-45 13.19905,9.4438 1.34949,25.0322-10,32.1428"/>
</g>
</svg>
